<svg xmlns="http://www.w3.org/2000/svg" xmlns:xlink="http://www.w3.org/1999/xlink" width="1090" height="873" viewBox="0 0 1090 873">
  <defs>
    <clipPath id="clip-path">
      <rect id="Rectangle_359" data-name="Rectangle 359" width="1090" height="873" transform="translate(641 280)" fill="#fff" stroke="#707070" stroke-width="1"/>
    </clipPath>
    <linearGradient id="linear-gradient" x1="0.499" y1="1" x2="0.499" gradientUnits="objectBoundingBox">
      <stop offset="0" stop-color="gray" stop-opacity="0.251"/>
      <stop offset="0.54" stop-color="gray" stop-opacity="0.122"/>
      <stop offset="1" stop-color="gray" stop-opacity="0.102"/>
    </linearGradient>
  </defs>
  <g id="Mask_Group_2" data-name="Mask Group 2" transform="translate(-641 -280)" clip-path="url(#clip-path)">
    <g id="undraw_typewriter_i8xd_1_" data-name="undraw_typewriter_i8xd (1)" transform="translate(678.004 317.003)">
      <path id="Path_539" data-name="Path 539" d="M778.58,220.8c-75.4-2.621-147.213-26.959-215.787-53.591S426.3,111.071,352.7,96.962C305.367,87.886,251.228,86.6,213.1,111.968c-36.71,24.466-48.57,66.582-54.943,105.7-4.8,29.429-7.619,60.4,5.522,87.948,9.134,19.13,25.328,35.207,36.535,53.533,38.994,63.75,11.429,142.367-30.815,204.614-19.806,29.207-42.815,57.087-58.112,88.146s-22.369,66.7-8.982,98.41c13.258,31.456,44.865,55.036,79.106,71.638,69.541,33.716,151.454,43.374,231.387,48.838,176.887,12.1,354.705,6.862,532.058,1.619,65.638-1.946,131.555-3.914,196.121-14.062,35.86-5.639,72.873-14.586,98.911-36.116,33.04-27.413,41.23-73.84,19.083-108.208-37.141-57.657-139.8-71.976-165.8-133.862-14.283-34.054.385-72,21.157-103.583,44.551-67.758,119.218-127.21,123.144-204.661,2.7-53.207-33.192-106.484-88.694-131.648-58.17-26.388-138.848-23.068-181.745,20.609C922.822,205.811,845.161,223.112,778.58,220.8Z" transform="translate(-95.23 -91.02)" fill="#ffc107" opacity="0.1"/>
      <g id="Group_53" data-name="Group 53" transform="translate(60.408 392.563)" opacity="0.2">
        <path id="Path_540" data-name="Path 540" d="M348.4,719.966a28.23,28.23,0,0,1,1.748,4.159q-13.98,5.278-27.961,11.068c-.2-.338-.4-.7-.583-1.06a23.813,23.813,0,0,1-2.9-12.175c.245-5.464,2.668-10.171,6.99-12.443s9.565-1.643,14.213,1.165a24.046,24.046,0,0,1,8.493,9.285Z" transform="translate(-118.759 -381.74)" fill="#3f3d56"/>
        <ellipse id="Ellipse_58" data-name="Ellipse 58" cx="15.169" cy="19.864" rx="15.169" ry="19.864" transform="translate(182.206 313.357) rotate(-27.84)" fill="#3f3d56"/>
        <ellipse id="Ellipse_59" data-name="Ellipse 59" cx="15.169" cy="19.864" rx="15.169" ry="19.864" transform="translate(170.875 291.892) rotate(-27.84)" fill="#3f3d56"/>
        <ellipse id="Ellipse_60" data-name="Ellipse 60" cx="15.169" cy="19.864" rx="15.169" ry="19.864" transform="translate(159.539 270.429) rotate(-27.84)" fill="#3f3d56"/>
        <ellipse id="Ellipse_61" data-name="Ellipse 61" cx="15.169" cy="19.864" rx="15.169" ry="19.864" transform="translate(148.196 248.964) rotate(-27.84)" fill="#3f3d56"/>
        <path id="Path_541" data-name="Path 541" d="M190.174,567.086a74.45,74.45,0,0,1-8.878-4.66l32.19-24.466-37.968,20.423a72.768,72.768,0,0,1-28.112-50.271l65.148-.478-65.475-9.728a72.675,72.675,0,1,1,144.1,15.868,72.3,72.3,0,0,1,13.514,7.852l-33.192,47.929,40.135-42.139a72.768,72.768,0,0,1,21.506,65.813,72.675,72.675,0,1,1-101.008,53.335A72.675,72.675,0,0,1,190.2,567.121Z" transform="translate(-147.08 -427.975)" fill="#ffc107"/>
        <path id="Path_542" data-name="Path 542" d="M314.056,529.512a72.372,72.372,0,0,1,7.235,46.986,72.675,72.675,0,1,1-101.008,53.335C205.895,623.449,310.246,522.3,314.056,529.512Z" transform="translate(-135.224 -411.279)" opacity="0.1"/>
      </g>
      <g id="Group_54" data-name="Group 54" transform="translate(785.043 82.681)" opacity="0.2">
        <path id="Path_543" data-name="Path 543" d="M787,590.564a37.012,37.012,0,0,0-1.608,6.058q20.295,4.555,40.6,9.891c.21-.5.419-1.037.618-1.573a33.25,33.25,0,0,0,1.619-17.324c-1.386-7.456-5.615-13.468-12.011-15.786s-13.468-.431-19.316,4.38A33.308,33.308,0,0,0,787,590.564Z" transform="translate(-766.375 -94.515)" fill="#3f3d56"/>
        <ellipse id="Ellipse_62" data-name="Ellipse 62" cx="27.576" cy="21.064" rx="27.576" ry="21.064" transform="matrix(0.341, -0.94, 0.94, 0.341, 22.707, 490.268)" fill="#3f3d56"/>
        <ellipse id="Ellipse_63" data-name="Ellipse 63" cx="27.576" cy="21.064" rx="27.576" ry="21.064" transform="matrix(0.34, -0.94, 0.94, 0.34, 32.989, 457.686)" fill="#3f3d56"/>
        <ellipse id="Ellipse_64" data-name="Ellipse 64" cx="27.576" cy="21.064" rx="27.576" ry="21.064" transform="matrix(0.341, -0.94, 0.94, 0.341, 45.719, 426.903)" fill="#3f3d56"/>
        <ellipse id="Ellipse_65" data-name="Ellipse 65" cx="27.576" cy="21.064" rx="27.576" ry="21.064" transform="matrix(0.341, -0.94, 0.94, 0.341, 57.221, 395.227)" fill="#3f3d56"/>
        <path id="Path_544" data-name="Path 544" d="M1008.384,348.628a100.411,100.411,0,0,0,11.324-8.155l-48.931-27.436,56.12,20.854a101.067,101.067,0,0,0,29.126-74.492l-89.707,11.744,88.2-25.887a100.915,100.915,0,1,0-195.2,49.246,101.359,101.359,0,0,0-17.091,13.363l54.756,59.615-63.226-50.341a100.962,100.962,0,0,0-17.009,94.624,100.9,100.9,0,1,0,149.124,54.151,100.938,100.938,0,0,0,42.593-117.284Z" transform="translate(-769.062 -161.988)" fill="#ffc107"/>
        <path id="Path_545" data-name="Path 545" d="M817.71,319.8a100.518,100.518,0,0,0-1,66.022,100.9,100.9,0,1,0,149.124,54.151C984.368,428.491,821.578,309.168,817.71,319.8Z" transform="translate(-769.068 -136.054)" opacity="0.1"/>
      </g>
      <ellipse id="Ellipse_66" data-name="Ellipse 66" cx="78.407" cy="15.075" rx="78.407" ry="15.075" transform="translate(131.847 733.422)" fill="#ffc107"/>
      <ellipse id="Ellipse_67" data-name="Ellipse 67" cx="9.134" cy="11.953" rx="9.134" ry="11.953" transform="translate(199.803 730.137)" fill="#3f3d56"/>
      <ellipse id="Ellipse_68" data-name="Ellipse 68" cx="9.134" cy="11.953" rx="9.134" ry="11.953" transform="translate(199.803 715.527)" fill="#3f3d56"/>
      <ellipse id="Ellipse_69" data-name="Ellipse 69" cx="9.134" cy="11.953" rx="9.134" ry="11.953" transform="translate(199.803 700.918)" fill="#3f3d56"/>
      <ellipse id="Ellipse_70" data-name="Ellipse 70" cx="9.134" cy="11.953" rx="9.134" ry="11.953" transform="translate(199.803 686.32)" fill="#3f3d56"/>
      <ellipse id="Ellipse_71" data-name="Ellipse 71" cx="9.134" cy="11.953" rx="9.134" ry="11.953" transform="translate(199.803 671.711)" fill="#3f3d56"/>
      <ellipse id="Ellipse_72" data-name="Ellipse 72" cx="9.134" cy="11.953" rx="9.134" ry="11.953" transform="translate(199.803 657.101)" fill="#3f3d56"/>
      <ellipse id="Ellipse_73" data-name="Ellipse 73" cx="9.134" cy="11.953" rx="9.134" ry="11.953" transform="translate(199.803 642.503)" fill="#3f3d56"/>
      <path id="Path_546" data-name="Path 546" d="M314.977,577.029a42.942,42.942,0,0,0,3.39-5.01l-23.976-3.938,25.934.2a43.77,43.77,0,0,0,.839-34.648l-34.8,18.046,32.1-23.58a43.735,43.735,0,1,0-72.232,48.931,43.628,43.628,0,0,0-5,7.969l31.141,16.182-33.2-11.149a43.747,43.747,0,0,0,7.06,41.067,43.724,43.724,0,1,0,68.737,0,43.735,43.735,0,0,0,0-54.069Z" transform="translate(-71.858 -22.497)" fill="#ffc107"/>
      <path id="Path_547" data-name="Path 547" d="M236.875,590.26a43.5,43.5,0,0,0,9.32,27.04,43.724,43.724,0,1,0,68.737,0C320.839,609.867,236.875,585.4,236.875,590.26Z" transform="translate(-71.859 -8.734)" opacity="0.1"/>
      <rect id="Rectangle_347" data-name="Rectangle 347" width="563.421" height="121.571" rx="7.42" transform="translate(312.707 207.807)" fill="#35323e"/>
      <path id="Path_548" data-name="Path 548" d="M405.446,143.17s8,217.663-6.186,243.142H878.95s-20.376-167.427,0-243.142Z" transform="translate(-45.055 -82.413)" fill="#fff"/>
      <path id="Path_549" data-name="Path 549" d="M405.446,143.17s8,217.663-6.186,243.142H878.95s-20.376-167.427,0-243.142Z" transform="translate(-45.055 -82.413)" fill="#a80a0a" opacity="0.252"/>
      <rect id="Rectangle_348" data-name="Rectangle 348" width="351.595" height="43.677" transform="translate(409.521 294.625)" fill="#35323e"/>
      <path id="Path_550" data-name="Path 550" d="M980.133,858.994H328.462a34.741,34.741,0,0,1-34.531-38.586l13.328-120.1q1.317-11.977,1.9-24.011l2.5-81.436q.862-27.6,3.728-55.059,1.491-14.237,3.5-28.415l17.138-119.392a62.912,62.912,0,0,1,62.213-53.824h26.027a61.164,61.164,0,0,1,36.594,12.314c26.959,20.12,103.548,34.636,193.838,34.636S821.584,370.6,848.6,350.434A61.164,61.164,0,0,1,885.2,338.12h42.162a37.689,37.689,0,0,1,37.118,31.153l23.009,130.483q3.5,19.9,5.93,39.961,4.054,33.355,5.091,67l2.33,75.669a425.676,425.676,0,0,0,4.089,47.149l12.361,86.573a37.526,37.526,0,0,1-37.153,42.885Z" transform="translate(-62.473 -50.24)" fill="#464353"/>
      <rect id="Rectangle_349" data-name="Rectangle 349" width="622.383" height="267.526" rx="19.96" transform="translate(281.414 506.649)" opacity="0.1"/>
      <ellipse id="Ellipse_74" data-name="Ellipse 74" cx="17.837" cy="14.924" rx="17.837" ry="14.924" transform="translate(303.608 523.018)" fill="#ffc107"/>
      <ellipse id="Ellipse_75" data-name="Ellipse 75" cx="17.837" cy="14.924" rx="17.837" ry="14.924" transform="translate(303.608 523.018)" opacity="0.1"/>
      <ellipse id="Ellipse_76" data-name="Ellipse 76" cx="17.837" cy="14.924" rx="17.837" ry="14.924" transform="translate(303.608 519.744)" fill="#ffc107"/>
      <ellipse id="Ellipse_77" data-name="Ellipse 77" cx="17.837" cy="14.924" rx="17.837" ry="14.924" transform="translate(324.718 575.071)" fill="#35323e"/>
      <ellipse id="Ellipse_78" data-name="Ellipse 78" cx="17.837" cy="14.924" rx="17.837" ry="14.924" transform="translate(324.718 575.071)" opacity="0.1"/>
      <ellipse id="Ellipse_79" data-name="Ellipse 79" cx="17.837" cy="14.924" rx="17.837" ry="14.924" transform="translate(324.718 571.798)" fill="#35323e"/>
      <ellipse id="Ellipse_80" data-name="Ellipse 80" cx="17.837" cy="14.924" rx="17.837" ry="14.924" transform="translate(336.368 627.125)" fill="#35323e"/>
      <ellipse id="Ellipse_81" data-name="Ellipse 81" cx="17.837" cy="14.924" rx="17.837" ry="14.924" transform="translate(336.368 627.125)" opacity="0.1"/>
      <ellipse id="Ellipse_82" data-name="Ellipse 82" cx="17.837" cy="14.924" rx="17.837" ry="14.924" transform="translate(336.368 623.851)" fill="#35323e"/>
      <ellipse id="Ellipse_83" data-name="Ellipse 83" cx="17.837" cy="14.924" rx="17.837" ry="14.924" transform="translate(291.235 633.311)" fill="#35323e"/>
      <ellipse id="Ellipse_84" data-name="Ellipse 84" cx="17.837" cy="14.924" rx="17.837" ry="14.924" transform="translate(291.235 633.311)" opacity="0.1"/>
      <ellipse id="Ellipse_85" data-name="Ellipse 85" cx="17.837" cy="14.924" rx="17.837" ry="14.924" transform="translate(291.235 630.037)" fill="#35323e"/>
      <ellipse id="Ellipse_86" data-name="Ellipse 86" cx="17.837" cy="14.924" rx="17.837" ry="14.924" transform="translate(358.201 679.167)" fill="#35323e"/>
      <ellipse id="Ellipse_87" data-name="Ellipse 87" cx="17.837" cy="14.924" rx="17.837" ry="14.924" transform="translate(358.201 679.167)" opacity="0.1"/>
      <ellipse id="Ellipse_88" data-name="Ellipse 88" cx="17.837" cy="14.924" rx="17.837" ry="14.924" transform="translate(358.201 675.893)" fill="#35323e"/>
      <ellipse id="Ellipse_89" data-name="Ellipse 89" cx="17.837" cy="14.924" rx="17.837" ry="14.924" transform="translate(298.517 680.996)" fill="#35323e"/>
      <ellipse id="Ellipse_90" data-name="Ellipse 90" cx="17.837" cy="14.924" rx="17.837" ry="14.924" transform="translate(298.517 680.996)" opacity="0.1"/>
      <ellipse id="Ellipse_91" data-name="Ellipse 91" cx="17.837" cy="14.924" rx="17.837" ry="14.924" transform="translate(298.517 677.711)" fill="#35323e"/>
      <ellipse id="Ellipse_92" data-name="Ellipse 92" cx="17.837" cy="14.924" rx="17.837" ry="14.924" transform="translate(407.342 679.167)" fill="#35323e"/>
      <ellipse id="Ellipse_93" data-name="Ellipse 93" cx="17.837" cy="14.924" rx="17.837" ry="14.924" transform="translate(407.342 679.167)" opacity="0.1"/>
      <ellipse id="Ellipse_94" data-name="Ellipse 94" cx="17.837" cy="14.924" rx="17.837" ry="14.924" transform="translate(407.342 675.893)" fill="#35323e"/>
      <ellipse id="Ellipse_95" data-name="Ellipse 95" cx="17.837" cy="14.924" rx="17.837" ry="14.924" transform="translate(459.384 679.167)" fill="#35323e"/>
      <ellipse id="Ellipse_96" data-name="Ellipse 96" cx="17.837" cy="14.924" rx="17.837" ry="14.924" transform="translate(459.384 679.167)" opacity="0.1"/>
      <ellipse id="Ellipse_97" data-name="Ellipse 97" cx="17.837" cy="14.924" rx="17.837" ry="14.924" transform="translate(459.384 675.893)" fill="#35323e"/>
      <ellipse id="Ellipse_98" data-name="Ellipse 98" cx="17.837" cy="14.924" rx="17.837" ry="14.924" transform="translate(507.43 679.167)" fill="#35323e"/>
      <ellipse id="Ellipse_99" data-name="Ellipse 99" cx="17.837" cy="14.924" rx="17.837" ry="14.924" transform="translate(507.43 679.167)" opacity="0.1"/>
      <ellipse id="Ellipse_100" data-name="Ellipse 100" cx="17.837" cy="14.924" rx="17.837" ry="14.924" transform="translate(507.43 675.893)" fill="#35323e"/>
      <ellipse id="Ellipse_101" data-name="Ellipse 101" cx="17.837" cy="14.924" rx="17.837" ry="14.924" transform="translate(560.567 679.167)" fill="#35323e"/>
      <ellipse id="Ellipse_102" data-name="Ellipse 102" cx="17.837" cy="14.924" rx="17.837" ry="14.924" transform="translate(560.567 679.167)" opacity="0.1"/>
      <ellipse id="Ellipse_103" data-name="Ellipse 103" cx="17.837" cy="14.924" rx="17.837" ry="14.924" transform="translate(560.567 675.893)" fill="#35323e"/>
      <ellipse id="Ellipse_104" data-name="Ellipse 104" cx="17.837" cy="14.924" rx="17.837" ry="14.924" transform="translate(608.613 679.167)" fill="#35323e"/>
      <ellipse id="Ellipse_105" data-name="Ellipse 105" cx="17.837" cy="14.924" rx="17.837" ry="14.924" transform="translate(608.613 679.167)" opacity="0.1"/>
      <ellipse id="Ellipse_106" data-name="Ellipse 106" cx="17.837" cy="14.924" rx="17.837" ry="14.924" transform="translate(608.613 675.893)" fill="#35323e"/>
      <ellipse id="Ellipse_107" data-name="Ellipse 107" cx="17.837" cy="14.924" rx="17.837" ry="14.924" transform="translate(656.286 679.167)" fill="#35323e"/>
      <ellipse id="Ellipse_108" data-name="Ellipse 108" cx="17.837" cy="14.924" rx="17.837" ry="14.924" transform="translate(656.286 679.167)" opacity="0.1"/>
      <ellipse id="Ellipse_109" data-name="Ellipse 109" cx="17.837" cy="14.924" rx="17.837" ry="14.924" transform="translate(656.286 675.893)" fill="#35323e"/>
      <ellipse id="Ellipse_110" data-name="Ellipse 110" cx="17.837" cy="14.924" rx="17.837" ry="14.924" transform="translate(707.978 679.167)" fill="#35323e"/>
      <ellipse id="Ellipse_111" data-name="Ellipse 111" cx="17.837" cy="14.924" rx="17.837" ry="14.924" transform="translate(707.978 679.167)" opacity="0.1"/>
      <ellipse id="Ellipse_112" data-name="Ellipse 112" cx="17.837" cy="14.924" rx="17.837" ry="14.924" transform="translate(707.978 675.893)" fill="#35323e"/>
      <ellipse id="Ellipse_113" data-name="Ellipse 113" cx="17.837" cy="14.924" rx="17.837" ry="14.924" transform="translate(756.385 679.167)" fill="#35323e"/>
      <ellipse id="Ellipse_114" data-name="Ellipse 114" cx="17.837" cy="14.924" rx="17.837" ry="14.924" transform="translate(756.385 679.167)" opacity="0.1"/>
      <ellipse id="Ellipse_115" data-name="Ellipse 115" cx="17.837" cy="14.924" rx="17.837" ry="14.924" transform="translate(756.385 675.893)" fill="#35323e"/>
      <ellipse id="Ellipse_116" data-name="Ellipse 116" cx="17.837" cy="14.924" rx="17.837" ry="14.924" transform="translate(809.883 679.167)" fill="#35323e"/>
      <ellipse id="Ellipse_117" data-name="Ellipse 117" cx="17.837" cy="14.924" rx="17.837" ry="14.924" transform="translate(809.883 679.167)" opacity="0.1"/>
      <ellipse id="Ellipse_118" data-name="Ellipse 118" cx="17.837" cy="14.924" rx="17.837" ry="14.924" transform="translate(809.883 675.893)" fill="#35323e"/>
      <ellipse id="Ellipse_119" data-name="Ellipse 119" cx="17.837" cy="14.924" rx="17.837" ry="14.924" transform="translate(864.85 679.167)" fill="#35323e"/>
      <ellipse id="Ellipse_120" data-name="Ellipse 120" cx="17.837" cy="14.924" rx="17.837" ry="14.924" transform="translate(864.85 679.167)" opacity="0.1"/>
      <ellipse id="Ellipse_121" data-name="Ellipse 121" cx="17.837" cy="14.924" rx="17.837" ry="14.924" transform="translate(864.85 675.893)" fill="#35323e"/>
      <ellipse id="Ellipse_122" data-name="Ellipse 122" cx="17.837" cy="14.924" rx="17.837" ry="14.924" transform="translate(385.871 627.125)" fill="#35323e"/>
      <ellipse id="Ellipse_123" data-name="Ellipse 123" cx="17.837" cy="14.924" rx="17.837" ry="14.924" transform="translate(385.871 627.125)" opacity="0.1"/>
      <ellipse id="Ellipse_124" data-name="Ellipse 124" cx="17.837" cy="14.924" rx="17.837" ry="14.924" transform="translate(385.871 623.851)" fill="#35323e"/>
      <ellipse id="Ellipse_125" data-name="Ellipse 125" cx="17.837" cy="14.924" rx="17.837" ry="14.924" transform="translate(435.361 627.125)" fill="#35323e"/>
      <ellipse id="Ellipse_126" data-name="Ellipse 126" cx="17.837" cy="14.924" rx="17.837" ry="14.924" transform="translate(435.361 627.125)" opacity="0.1"/>
      <ellipse id="Ellipse_127" data-name="Ellipse 127" cx="17.837" cy="14.924" rx="17.837" ry="14.924" transform="translate(435.361 623.851)" fill="#35323e"/>
      <ellipse id="Ellipse_128" data-name="Ellipse 128" cx="17.837" cy="14.924" rx="17.837" ry="14.924" transform="translate(486.319 627.125)" fill="#35323e"/>
      <ellipse id="Ellipse_129" data-name="Ellipse 129" cx="17.837" cy="14.924" rx="17.837" ry="14.924" transform="translate(486.319 627.125)" opacity="0.1"/>
      <ellipse id="Ellipse_130" data-name="Ellipse 130" cx="17.837" cy="14.924" rx="17.837" ry="14.924" transform="translate(486.319 623.851)" fill="#35323e"/>
      <ellipse id="Ellipse_131" data-name="Ellipse 131" cx="17.837" cy="14.924" rx="17.837" ry="14.924" transform="translate(535.088 627.125)" fill="#35323e"/>
      <ellipse id="Ellipse_132" data-name="Ellipse 132" cx="17.837" cy="14.924" rx="17.837" ry="14.924" transform="translate(535.088 627.125)" opacity="0.1"/>
      <ellipse id="Ellipse_133" data-name="Ellipse 133" cx="17.837" cy="14.924" rx="17.837" ry="14.924" transform="translate(535.088 623.851)" fill="#35323e"/>
      <ellipse id="Ellipse_134" data-name="Ellipse 134" cx="17.837" cy="14.924" rx="17.837" ry="14.924" transform="translate(584.951 627.125)" fill="#35323e"/>
      <ellipse id="Ellipse_135" data-name="Ellipse 135" cx="17.837" cy="14.924" rx="17.837" ry="14.924" transform="translate(584.951 627.125)" opacity="0.1"/>
      <ellipse id="Ellipse_136" data-name="Ellipse 136" cx="17.837" cy="14.924" rx="17.837" ry="14.924" transform="translate(584.951 623.851)" fill="#35323e"/>
      <ellipse id="Ellipse_137" data-name="Ellipse 137" cx="17.837" cy="14.924" rx="17.837" ry="14.924" transform="translate(632.636 627.125)" fill="#35323e"/>
      <ellipse id="Ellipse_138" data-name="Ellipse 138" cx="17.837" cy="14.924" rx="17.837" ry="14.924" transform="translate(632.636 627.125)" opacity="0.1"/>
      <ellipse id="Ellipse_139" data-name="Ellipse 139" cx="17.837" cy="14.924" rx="17.837" ry="14.924" transform="translate(632.636 623.851)" fill="#35323e"/>
      <ellipse id="Ellipse_140" data-name="Ellipse 140" cx="17.837" cy="14.924" rx="17.837" ry="14.924" transform="translate(684.316 627.125)" fill="#35323e"/>
      <ellipse id="Ellipse_141" data-name="Ellipse 141" cx="17.837" cy="14.924" rx="17.837" ry="14.924" transform="translate(684.316 627.125)" opacity="0.1"/>
      <ellipse id="Ellipse_142" data-name="Ellipse 142" cx="17.837" cy="14.924" rx="17.837" ry="14.924" transform="translate(684.316 623.851)" fill="#35323e"/>
      <ellipse id="Ellipse_143" data-name="Ellipse 143" cx="17.837" cy="14.924" rx="17.837" ry="14.924" transform="translate(733.457 627.125)" fill="#35323e"/>
      <ellipse id="Ellipse_144" data-name="Ellipse 144" cx="17.837" cy="14.924" rx="17.837" ry="14.924" transform="translate(733.457 627.125)" opacity="0.1"/>
      <ellipse id="Ellipse_145" data-name="Ellipse 145" cx="17.837" cy="14.924" rx="17.837" ry="14.924" transform="translate(733.457 623.851)" fill="#35323e"/>
      <ellipse id="Ellipse_146" data-name="Ellipse 146" cx="17.837" cy="14.924" rx="17.837" ry="14.924" transform="translate(783.682 627.125)" fill="#35323e"/>
      <ellipse id="Ellipse_147" data-name="Ellipse 147" cx="17.837" cy="14.924" rx="17.837" ry="14.924" transform="translate(783.682 627.125)" opacity="0.1"/>
      <ellipse id="Ellipse_148" data-name="Ellipse 148" cx="17.837" cy="14.924" rx="17.837" ry="14.924" transform="translate(783.682 623.851)" fill="#35323e"/>
      <ellipse id="Ellipse_149" data-name="Ellipse 149" cx="17.837" cy="14.924" rx="17.837" ry="14.924" transform="translate(833.906 627.125)" fill="#35323e"/>
      <ellipse id="Ellipse_150" data-name="Ellipse 150" cx="17.837" cy="14.924" rx="17.837" ry="14.924" transform="translate(833.906 627.125)" opacity="0.1"/>
      <ellipse id="Ellipse_151" data-name="Ellipse 151" cx="17.837" cy="14.924" rx="17.837" ry="14.924" transform="translate(833.906 623.851)" fill="#35323e"/>
      <ellipse id="Ellipse_152" data-name="Ellipse 152" cx="17.837" cy="14.924" rx="17.837" ry="14.924" transform="translate(374.943 575.071)" fill="#35323e"/>
      <ellipse id="Ellipse_153" data-name="Ellipse 153" cx="17.837" cy="14.924" rx="17.837" ry="14.924" transform="translate(374.943 575.071)" opacity="0.1"/>
      <ellipse id="Ellipse_154" data-name="Ellipse 154" cx="17.837" cy="14.924" rx="17.837" ry="14.924" transform="translate(374.943 571.798)" fill="#35323e"/>
      <ellipse id="Ellipse_155" data-name="Ellipse 155" cx="17.837" cy="14.924" rx="17.837" ry="14.924" transform="translate(425.179 575.071)" fill="#35323e"/>
      <ellipse id="Ellipse_156" data-name="Ellipse 156" cx="17.837" cy="14.924" rx="17.837" ry="14.924" transform="translate(425.179 575.071)" opacity="0.1"/>
      <ellipse id="Ellipse_157" data-name="Ellipse 157" cx="17.837" cy="14.924" rx="17.837" ry="14.924" transform="translate(425.179 571.798)" fill="#35323e"/>
      <ellipse id="Ellipse_158" data-name="Ellipse 158" cx="17.837" cy="14.924" rx="17.837" ry="14.924" transform="translate(473.586 575.071)" fill="#35323e"/>
      <ellipse id="Ellipse_159" data-name="Ellipse 159" cx="17.837" cy="14.924" rx="17.837" ry="14.924" transform="translate(473.586 575.071)" opacity="0.1"/>
      <ellipse id="Ellipse_160" data-name="Ellipse 160" cx="17.837" cy="14.924" rx="17.837" ry="14.924" transform="translate(473.586 571.798)" fill="#35323e"/>
      <ellipse id="Ellipse_161" data-name="Ellipse 161" cx="17.837" cy="14.924" rx="17.837" ry="14.924" transform="translate(521.993 575.071)" fill="#35323e"/>
      <ellipse id="Ellipse_162" data-name="Ellipse 162" cx="17.837" cy="14.924" rx="17.837" ry="14.924" transform="translate(521.993 575.071)" opacity="0.1"/>
      <ellipse id="Ellipse_163" data-name="Ellipse 163" cx="17.837" cy="14.924" rx="17.837" ry="14.924" transform="translate(521.993 571.798)" fill="#35323e"/>
      <ellipse id="Ellipse_164" data-name="Ellipse 164" cx="17.837" cy="14.924" rx="17.837" ry="14.924" transform="translate(570.761 575.071)" fill="#35323e"/>
      <ellipse id="Ellipse_165" data-name="Ellipse 165" cx="17.837" cy="14.924" rx="17.837" ry="14.924" transform="translate(570.761 575.071)" opacity="0.1"/>
      <ellipse id="Ellipse_166" data-name="Ellipse 166" cx="17.837" cy="14.924" rx="17.837" ry="14.924" transform="translate(570.761 571.798)" fill="#35323e"/>
      <ellipse id="Ellipse_167" data-name="Ellipse 167" cx="17.837" cy="14.924" rx="17.837" ry="14.924" transform="translate(618.807 575.071)" fill="#35323e"/>
      <ellipse id="Ellipse_168" data-name="Ellipse 168" cx="17.837" cy="14.924" rx="17.837" ry="14.924" transform="translate(618.807 575.071)" opacity="0.1"/>
      <ellipse id="Ellipse_169" data-name="Ellipse 169" cx="17.837" cy="14.924" rx="17.837" ry="14.924" transform="translate(618.807 571.798)" fill="#35323e"/>
      <ellipse id="Ellipse_170" data-name="Ellipse 170" cx="17.837" cy="14.924" rx="17.837" ry="14.924" transform="translate(669.754 575.071)" fill="#35323e"/>
      <ellipse id="Ellipse_171" data-name="Ellipse 171" cx="17.837" cy="14.924" rx="17.837" ry="14.924" transform="translate(669.754 575.071)" opacity="0.1"/>
      <ellipse id="Ellipse_172" data-name="Ellipse 172" cx="17.837" cy="14.924" rx="17.837" ry="14.924" transform="translate(669.754 571.798)" fill="#35323e"/>
      <ellipse id="Ellipse_173" data-name="Ellipse 173" cx="17.837" cy="14.924" rx="17.837" ry="14.924" transform="translate(717.799 575.071)" fill="#35323e"/>
      <ellipse id="Ellipse_174" data-name="Ellipse 174" cx="17.837" cy="14.924" rx="17.837" ry="14.924" transform="translate(717.799 575.071)" opacity="0.1"/>
      <ellipse id="Ellipse_175" data-name="Ellipse 175" cx="17.837" cy="14.924" rx="17.837" ry="14.924" transform="translate(717.799 571.798)" fill="#35323e"/>
      <ellipse id="Ellipse_176" data-name="Ellipse 176" cx="17.837" cy="14.924" rx="17.837" ry="14.924" transform="translate(769.119 575.071)" fill="#35323e"/>
      <ellipse id="Ellipse_177" data-name="Ellipse 177" cx="17.837" cy="14.924" rx="17.837" ry="14.924" transform="translate(769.119 575.071)" opacity="0.1"/>
      <ellipse id="Ellipse_178" data-name="Ellipse 178" cx="17.837" cy="14.924" rx="17.837" ry="14.924" transform="translate(769.119 571.798)" fill="#35323e"/>
      <ellipse id="Ellipse_179" data-name="Ellipse 179" cx="17.837" cy="14.924" rx="17.837" ry="14.924" transform="translate(819.344 575.071)" fill="#35323e"/>
      <ellipse id="Ellipse_180" data-name="Ellipse 180" cx="17.837" cy="14.924" rx="17.837" ry="14.924" transform="translate(819.344 575.071)" opacity="0.1"/>
      <ellipse id="Ellipse_181" data-name="Ellipse 181" cx="17.837" cy="14.924" rx="17.837" ry="14.924" transform="translate(819.344 571.798)" fill="#35323e"/>
      <ellipse id="Ellipse_182" data-name="Ellipse 182" cx="17.837" cy="14.924" rx="17.837" ry="14.924" transform="translate(350.197 523.018)" fill="#35323e"/>
      <ellipse id="Ellipse_183" data-name="Ellipse 183" cx="17.837" cy="14.924" rx="17.837" ry="14.924" transform="translate(350.197 523.018)" opacity="0.1"/>
      <ellipse id="Ellipse_184" data-name="Ellipse 184" cx="17.837" cy="14.924" rx="17.837" ry="14.924" transform="translate(350.197 519.744)" fill="#35323e"/>
      <ellipse id="Ellipse_185" data-name="Ellipse 185" cx="17.837" cy="14.924" rx="17.837" ry="14.924" transform="translate(399.699 523.018)" fill="#35323e"/>
      <ellipse id="Ellipse_186" data-name="Ellipse 186" cx="17.837" cy="14.924" rx="17.837" ry="14.924" transform="translate(399.699 523.018)" opacity="0.1"/>
      <ellipse id="Ellipse_187" data-name="Ellipse 187" cx="17.837" cy="14.924" rx="17.837" ry="14.924" transform="translate(399.699 519.744)" fill="#35323e"/>
      <ellipse id="Ellipse_188" data-name="Ellipse 188" cx="17.837" cy="14.924" rx="17.837" ry="14.924" transform="translate(447.372 523.018)" fill="#35323e"/>
      <ellipse id="Ellipse_189" data-name="Ellipse 189" cx="17.837" cy="14.924" rx="17.837" ry="14.924" transform="translate(447.372 523.018)" opacity="0.1"/>
      <ellipse id="Ellipse_190" data-name="Ellipse 190" cx="17.837" cy="14.924" rx="17.837" ry="14.924" transform="translate(447.372 519.744)" fill="#35323e"/>
      <ellipse id="Ellipse_191" data-name="Ellipse 191" cx="17.837" cy="14.924" rx="17.837" ry="14.924" transform="translate(496.513 523.018)" fill="#35323e"/>
      <ellipse id="Ellipse_192" data-name="Ellipse 192" cx="17.837" cy="14.924" rx="17.837" ry="14.924" transform="translate(496.513 523.018)" opacity="0.1"/>
      <ellipse id="Ellipse_193" data-name="Ellipse 193" cx="17.837" cy="14.924" rx="17.837" ry="14.924" transform="translate(496.513 519.744)" fill="#35323e"/>
      <ellipse id="Ellipse_194" data-name="Ellipse 194" cx="17.837" cy="14.924" rx="17.837" ry="14.924" transform="translate(544.921 523.018)" fill="#35323e"/>
      <ellipse id="Ellipse_195" data-name="Ellipse 195" cx="17.837" cy="14.924" rx="17.837" ry="14.924" transform="translate(544.921 523.018)" opacity="0.1"/>
      <ellipse id="Ellipse_196" data-name="Ellipse 196" cx="17.837" cy="14.924" rx="17.837" ry="14.924" transform="translate(544.921 519.744)" fill="#35323e"/>
      <ellipse id="Ellipse_197" data-name="Ellipse 197" cx="17.837" cy="14.924" rx="17.837" ry="14.924" transform="translate(594.423 523.018)" fill="#35323e"/>
      <ellipse id="Ellipse_198" data-name="Ellipse 198" cx="17.837" cy="14.924" rx="17.837" ry="14.924" transform="translate(594.423 523.018)" opacity="0.1"/>
      <ellipse id="Ellipse_199" data-name="Ellipse 199" cx="17.837" cy="14.924" rx="17.837" ry="14.924" transform="translate(594.423 519.744)" fill="#35323e"/>
      <ellipse id="Ellipse_200" data-name="Ellipse 200" cx="17.837" cy="14.924" rx="17.837" ry="14.924" transform="translate(642.83 523.018)" fill="#35323e"/>
      <ellipse id="Ellipse_201" data-name="Ellipse 201" cx="17.837" cy="14.924" rx="17.837" ry="14.924" transform="translate(642.83 523.018)" opacity="0.1"/>
      <ellipse id="Ellipse_202" data-name="Ellipse 202" cx="17.837" cy="14.924" rx="17.837" ry="14.924" transform="translate(642.83 519.744)" fill="#35323e"/>
      <ellipse id="Ellipse_203" data-name="Ellipse 203" cx="17.837" cy="14.924" rx="17.837" ry="14.924" transform="translate(691.959 523.018)" fill="#35323e"/>
      <ellipse id="Ellipse_204" data-name="Ellipse 204" cx="17.837" cy="14.924" rx="17.837" ry="14.924" transform="translate(691.959 523.018)" opacity="0.1"/>
      <ellipse id="Ellipse_205" data-name="Ellipse 205" cx="17.837" cy="14.924" rx="17.837" ry="14.924" transform="translate(691.959 519.744)" fill="#35323e"/>
      <ellipse id="Ellipse_206" data-name="Ellipse 206" cx="17.837" cy="14.924" rx="17.837" ry="14.924" transform="translate(742.556 523.018)" fill="#35323e"/>
      <ellipse id="Ellipse_207" data-name="Ellipse 207" cx="17.837" cy="14.924" rx="17.837" ry="14.924" transform="translate(742.556 523.018)" opacity="0.1"/>
      <ellipse id="Ellipse_208" data-name="Ellipse 208" cx="17.837" cy="14.924" rx="17.837" ry="14.924" transform="translate(742.556 519.744)" fill="#35323e"/>
      <ellipse id="Ellipse_209" data-name="Ellipse 209" cx="17.837" cy="14.924" rx="17.837" ry="14.924" transform="translate(792.047 523.018)" fill="#35323e"/>
      <ellipse id="Ellipse_210" data-name="Ellipse 210" cx="17.837" cy="14.924" rx="17.837" ry="14.924" transform="translate(792.047 523.018)" opacity="0.1"/>
      <ellipse id="Ellipse_211" data-name="Ellipse 211" cx="17.837" cy="14.924" rx="17.837" ry="14.924" transform="translate(792.047 519.744)" fill="#35323e"/>
      <ellipse id="Ellipse_212" data-name="Ellipse 212" cx="17.837" cy="14.924" rx="17.837" ry="14.924" transform="translate(840.454 523.018)" fill="#ffc107"/>
      <ellipse id="Ellipse_213" data-name="Ellipse 213" cx="17.837" cy="14.924" rx="17.837" ry="14.924" transform="translate(840.454 523.018)" opacity="0.1"/>
      <ellipse id="Ellipse_214" data-name="Ellipse 214" cx="17.837" cy="14.924" rx="17.837" ry="14.924" transform="translate(840.454 519.744)" fill="#ffc107"/>
      <rect id="Rectangle_350" data-name="Rectangle 350" width="544.862" height="28.753" rx="9.07" transform="translate(321.444 729.042)" fill="#35323e"/>
      <rect id="Rectangle_351" data-name="Rectangle 351" width="544.862" height="28.753" rx="9.07" transform="translate(321.444 729.042)" opacity="0.1"/>
      <rect id="Rectangle_352" data-name="Rectangle 352" width="544.862" height="28.753" rx="9.07" transform="translate(321.444 726.852)" fill="#35323e"/>
      <path id="Path_551" data-name="Path 551" d="M831.493,429.235c0,30.757-97.35,63.692-207.108,63.692S433.32,457.44,433.32,426.683s81.331-45.133,191.065-45.133S831.493,398.478,831.493,429.235Z" transform="translate(-39.434 -43.073)" opacity="0.1"/>
      <ellipse id="Ellipse_215" data-name="Ellipse 215" cx="12.011" cy="29.662" rx="12.011" ry="29.662" transform="translate(876.488 236.572)" fill="#464353"/>
      <ellipse id="Ellipse_216" data-name="Ellipse 216" cx="12.011" cy="29.662" rx="12.011" ry="29.662" transform="translate(288.322 236.572)" fill="#464353"/>
      <rect id="Rectangle_353" data-name="Rectangle 353" width="579.428" height="8.738" transform="translate(309.072 259.138)" opacity="0.1"/>
      <rect id="Rectangle_354" data-name="Rectangle 354" width="579.428" height="8.738" transform="translate(309.072 257.682)" fill="#464353"/>
      <path id="Path_552" data-name="Path 552" d="M618.908,321.578c-4.742-1.456-13.468,27.3-13.468,27.3H632S623.649,323.034,618.908,321.578Zm-.373,3.635a2.546,2.546,0,1,0,.012,0Zm.3,8.225c3.111.757,8.621,14.342,8.621,14.342H609.984s5.755-15.11,8.924-14.342Z" transform="translate(-11.029 -52.979)" fill="#464353"/>
      <path id="Path_553" data-name="Path 553" d="M990.348,539.752H312.3q1.491-14.237,3.5-28.415l17.138-119.392a62.912,62.912,0,0,1,62.213-53.824h26.027a61.164,61.164,0,0,1,36.594,12.314c26.959,20.12,103.548,34.636,193.838,34.636s166.914-14.47,193.931-34.636a61.164,61.164,0,0,1,36.594-12.314h42.162a37.689,37.689,0,0,1,37.118,31.153l23.009,130.483Q987.913,519.725,990.348,539.752Z" transform="translate(-59.406 -50.24)" fill="#fff" opacity="0.03"/>
      <g id="woman" transform="translate(493.205 532.895)">
        <path id="Path_554" data-name="Path 554" d="M596.79,653.947s-13.363-24.466-11.1-28.4a53.145,53.145,0,0,0,3.9-9.728s4.94-3.379,4.94-4.777,3.9-4.567,5.965-5.953,1.025-7.945,0-8.738a17.625,17.625,0,0,1-2.656-3.577s1.421-3.973,0-5.161.21-2.33,0-3.577a50.686,50.686,0,0,1,0-5.557,8.994,8.994,0,0,0-5.254-3.821l-.151-.629-.885-3.7s4.264-8.155-2.656-12.489a13.545,13.545,0,0,0-1.538-.816v-.536a34.721,34.721,0,0,0-1.013-6.28c-.361-1.165-.827-1.922-1.445-1.748a.956.956,0,0,0-.384.221,4.234,4.234,0,0,0-.734.874h0a14.888,14.888,0,0,0-1.631,4.544,26.213,26.213,0,0,0-.466,2.854h0a15.44,15.44,0,0,0-.792,1.771c-.839,2.179-1.829,5.965,0,8.761,1.526,2.33,3.565,5.639,5.056,8.015v.082l.093.14-.151.1v.361l.128,2,1.165,17.3a7,7,0,0,0-1.049-.221,8.614,8.614,0,0,0-1.538-.1c-1-3.938-3.763-7.619-4.252-11.732a8.788,8.788,0,0,1-.082-1.235c0-2.6.687-5.2.629-7.782a11.766,11.766,0,0,0,0-1.433h0v-.4a11.65,11.65,0,0,0-6.361-8.854c-1.165-.594-2.482-.99-3.647-1.643-2.68-1.5-4.392-4.217-6.827-6.07a7.514,7.514,0,0,0-6.536-1.421,29.848,29.848,0,0,0-3.192.664h0a28.7,28.7,0,0,0-7.281,3.018c-.3.186-.617.373-.909.594a4.066,4.066,0,0,0-1.468,1.713,4.545,4.545,0,0,0-.233,1.852V563.8c-.14,7.6-8.33,13.5-9.006,20.971v1.351h0v.594c.116,3.262,1.806,6.291,2.12,9.542v.862a14.445,14.445,0,0,1-.839,4.369,12.55,12.55,0,0,0-2.959,1.165c-2.482,1.6-6.99,4.369-8.621,9.658a14.039,14.039,0,0,0-.629,4.241,88.61,88.61,0,0,1-1.386,15.145,29.8,29.8,0,0,1-.874,3.728.84.84,0,0,0,0,.361l-.979,12.815-.186,2.26-.245,3.216s.07.2.175.524.268.885.4,1.48a8.074,8.074,0,0,1,.128,3.332,2.33,2.33,0,0,1-.7,1.165l-.082.093a9.868,9.868,0,0,0-.746,3.262c-.093.676-.163,1.41-.245,2.225-.478,5.056-.781,12.641-.955,18.908s-.233,11.068-.233,11.068a12.528,12.528,0,0,0,2.551,1.258,5.459,5.459,0,0,0-.2.524,24.394,24.394,0,0,0-1.55,6.524c-.408,4.66.9,9.868,7.421,12.547a10.375,10.375,0,0,0,1.281.431,4.043,4.043,0,0,0,3.25-.2v.827c.07,1.165.128,2.214.151,3.111.21,5.557,1.584,15.285,1.584,15.285s.478,3.973.058,5.173,0,5.953,0,5.953,1.445,2.33,0,3.577-1.841,7.153-1.433,7.945a.529.529,0,0,0,0,.093c.315,1.969-1.468,31.293-1.468,31.293s-1.678,4.485-3.006,9.146-2.33,9.239-1.083,10.112a9.9,9.9,0,0,0,3.763,1.014v.594a17.324,17.324,0,0,1-.827,4.928c-.571.8-1.165,7.072-1.456,10.485v.373a34.18,34.18,0,0,0-1.538,4.45s-4.544,11.382-3.006,14.365a2.331,2.331,0,0,0,.571.7h0a.858.858,0,0,0,.151.14c2.19,1.747,7.678,2.12,9.67,2.2l-.07,2.819v.2h2.6v-.07c0-.361.058-1.992.14-4.182v-2.167a17.476,17.476,0,0,0,1.165-6.349,27.648,27.648,0,0,1,1-7.363,19.809,19.809,0,0,1,1.316-3.588,16.369,16.369,0,0,0-.326-7.3,5.071,5.071,0,0,0-.932-1.643,2.654,2.654,0,0,0,0-.3v-.652a26.855,26.855,0,0,1,.606-6.093.219.219,0,0,1,0-.093,1.768,1.768,0,0,1,.117-.489v-.1h.839c2.575.082,4.474.082,4.474.082s2.062-10.485,1.852-15.145v-.617a59.006,59.006,0,0,1,1.247-10.707l1.643-16.077a8.609,8.609,0,0,1,0-4.777c.513-1.165,1.561-3.5,2.33-5.068.338-.734.617-1.3.734-1.549v-.128a3.5,3.5,0,0,1-.734-.373h0c-.676-.454-1.27-1.328.734-2.61,3.087-1.992,2.062-6.99,2.062-6.99a3.577,3.577,0,0,1,.163-3.379c1.072-1.585,0-7.549,0-7.549a24.6,24.6,0,0,0,2.109-4.963c.769-2.33,2.7-13.98,3.612-19.607.3-1.841.489-3.029.489-3.029v.606h0l.256,2.645v.349l.466,5.01s.955,13.165.361,18.326a.223.223,0,0,1,0,.093,5.686,5.686,0,0,1-.349,1.561c-1.083,2.482-.885,12.3-.827,14.47v.443a7.665,7.665,0,0,0-.583,3.355h0a2.214,2.214,0,0,0,.373,1,2.517,2.517,0,0,1,.373,1.549h0v.687a13.223,13.223,0,0,1-.722,2.691s-1.165,2.9-.687,4.415h0a1.562,1.562,0,0,0,.28.536,1.317,1.317,0,0,1,.151.571h0c.384,3.2-.606,17.336-1.165,25.06-.233,3.052-.408,5.115-.408,5.115l-1.631,16.881.163.1c.186.14.536.361,1,.641h0l-.07.513c-.233,1.631-.548,3.5-.885,4.963a3.122,3.122,0,0,0-.082.315,4.568,4.568,0,0,0-1.747.7c-3.5,6.151-1.934,11.021,0,12.442a4.951,4.951,0,0,1,1.165,2.9l.478,6.128v.711a1.817,1.817,0,0,0,.093.559l.152,1.852.2,2.586h1.573v-2.948h.093c2.493.093,6.5.2,8.26.058h.466a.9.9,0,0,0,.28-.082c.92-.443,3.239-6.99,1.165-8.482s-2.54-5.685-2.54-5.685c-.186-.559-.361-1.083-.547-1.584a2.847,2.847,0,0,1,0-.315,26.2,26.2,0,0,1,.245-5.452,43.2,43.2,0,0,0,.548-6.513c0-.186,0-.361,0-.548v-.058a6.984,6.984,0,0,0,1.06-.338h.081a7.526,7.526,0,0,0,1.771-1.049l5.767-25.817.606-3.006,3.5-17.068s-1.223-5.953,0-6.99c.454-.361.583-1.887.548-3.682a59.817,59.817,0,0,0-.548-6.99s1.643-2.575,2.47-4.171,0-5.755,0-5.755l1.643-9.53a90.03,90.03,0,0,1,6.384-20.866c3.332-6.99,1.165-25.945-.967-36.034l-.175-.757,3.6-1.747.5-.233c1.689-.792,3.5-1.608,5.08-2.33h.1q1.714-.745,3.5-1.316a5.076,5.076,0,0,1,1.083-.221C605.435,669.023,596.79,653.947,596.79,653.947Zm-64.333,32.318h.85c-.1.186-.2.373-.291.571a3,3,0,0,0-.163.338,19.2,19.2,0,0,0-.839,1.969c.093-.711.21-1.48.338-2.33Zm-2.33,12.4v-.07a.255.255,0,0,0-.082-.221l-.14-.454c.291-.093.594-.186.9-.3h0v.163c0,.058-.058.443-.082.664h0v.617c0,.175-.093.664-.128.99l-.28-.885c-.07-.21-.117-.373-.175-.524Z" transform="translate(-518.57 -548.429)" fill="url(#linear-gradient)"/>
        <path id="Path_555" data-name="Path 555" d="M583.3,577.571l-5.126,1.829-1.864-3.1c-1.433-2.33-3.414-5.627-4.87-7.992-2.575-4.159.792-10.485.792-10.485s.594-6.338,2.773-8.318,2.773,8.318,2.773,8.318c8.7,3.949,4.043,13.258,4.043,13.258l.839,3.693Z" transform="translate(-510.005 -548.293)" fill="#be6f72"/>
        <path id="Path_556" data-name="Path 556" d="M582.47,573.976l-5.126,1.829-1.864-3.1v-.268a8.971,8.971,0,0,1,6.373-1.258Z" transform="translate(-509.178 -544.697)" opacity="0.1"/>
        <path id="Path_557" data-name="Path 557" d="M574.36,594.722l2.575-2.179-1.293-19.6a8.155,8.155,0,0,1,11.58,2.621,50.474,50.474,0,0,0,0,5.546c.2,1.165-1.386,2.33,0,3.5s0,5.149,0,5.149a17.873,17.873,0,0,0,2.551,3.565c.99.792,1.981,7.328,0,8.714s-5.744,4.555-5.744,5.942-4.742,4.742-4.742,4.742l-4.182-5.522Z" transform="translate(-509.363 -544.612)" fill="#ffc107"/>
        <path id="Path_558" data-name="Path 558" d="M527.632,697.146c-9.6-4.066-7.468-13.98-5.662-19.013a28.531,28.531,0,0,1,1.27-2.959l5.382-3.274s1.1,2.808,2.272,6.571C533.621,687.162,536.755,701.014,527.632,697.146Z" transform="translate(-518.265 -528.052)" fill="#be6f72"/>
        <path id="Path_559" data-name="Path 559" d="M539.707,771.8a16.129,16.129,0,0,0-1.433,4.008,28.506,28.506,0,0,0-.594,6.815,25.953,25.953,0,0,0,.175,2.621L527.16,792.6s.058-.862.163-2.132c.28-3.367.85-9.612,1.4-10.415a17.474,17.474,0,0,0,.8-4.916c.163-2.039.233-3.926.233-3.926S542.6,766.387,539.707,771.8Z" transform="translate(-517.152 -511.989)" fill="#be6f72"/>
        <path id="Path_560" data-name="Path 560" d="M561.073,776.149s0,2.039-.07,4.427a45.443,45.443,0,0,1-.513,6.489,25.92,25.92,0,0,0-.245,5.429c.07,2.33.245,4.509.245,4.509s-10.916-10.311-9.81-11.126a5.162,5.162,0,0,0,.874-2.33c.326-1.445.629-3.332.85-4.951.268-1.922.431-3.5.431-3.5Z" transform="translate(-513.283 -511.021)" fill="#be6f72"/>
        <path id="Path_561" data-name="Path 561" d="M539.372,771.8a16.129,16.129,0,0,0-1.433,4.008,86.229,86.229,0,0,1-8.749-.676c.163-2.039.233-3.926.233-3.926S542.262,766.387,539.372,771.8Z" transform="translate(-516.817 -511.989)" opacity="0.1"/>
        <path id="Path_562" data-name="Path 562" d="M560.818,776.14s0,2.039-.07,4.427c-3.4.862-6.9-.874-8.6-1.922.268-1.922.431-3.5.431-3.5Z" transform="translate(-513.028 -511.013)" opacity="0.1"/>
        <path id="Path_563" data-name="Path 563" d="M587.534,695.164a92.237,92.237,0,0,0-6.14,20.8l-1.584,9.495s.792,4.159,0,5.744-2.33,4.159-2.33,4.159,1.165,9.7,0,10.7,0,6.92,0,6.92l-3.961,20-5.534,25.7c-5.348,4.357-12.454-1.165-12.454-1.165l1.573-16.835s2.33-29.5,1.386-30.687.4-4.94.4-4.94,1.386-3.565.4-4.951.2-4.357.2-4.357-.4-12.081.792-14.854,0-19.922,0-19.922l-.5-5.336-.268-2.959v-.291l-.478,3.029c-.874,5.581-2.738,17.161-3.5,19.549a24.629,24.629,0,0,1-2.039,4.94s1.037,5.942,0,7.526a3.681,3.681,0,0,0-.151,3.367s.99,4.951-1.981,6.99,0,2.971,0,2.971-2.179,4.753-2.971,6.734a8.727,8.727,0,0,0,0,4.742L546.8,768.27a58.253,58.253,0,0,0-1.165,11.289c.2,4.544-1.782,15.041-1.782,15.041s-15.239,0-17.592-1.783,3.938-19.2,3.938-19.2,1.783-30.489,1.386-31.281,0-6.734,1.386-7.922,0-3.565,0-3.565-.4-4.753,0-5.942a21.5,21.5,0,0,0-.07-5.149s-1.317-9.693-1.515-15.239-1.165-18.023-1.165-18.023,1.025-7.7,1.165-11.382a13.223,13.223,0,0,1,1.41-4.66,42.608,42.608,0,0,1,2.936-5.184s46.927-13.852,48.931-12.466c.513.361,1.281,2.831,2.027,6.454C588.687,669.359,590.738,688.174,587.534,695.164Z" transform="translate(-517.387 -531.22)" fill="#ffc107"/>
        <path id="Path_564" data-name="Path 564" d="M587.534,695.164a92.237,92.237,0,0,0-6.14,20.8l-1.584,9.495s.792,4.159,0,5.744-2.33,4.159-2.33,4.159,1.165,9.7,0,10.7,0,6.92,0,6.92l-3.961,20-5.534,25.7c-5.348,4.357-12.454-1.165-12.454-1.165l1.573-16.835s2.33-29.5,1.386-30.687.4-4.94.4-4.94,1.386-3.565.4-4.951.2-4.357.2-4.357-.4-12.081.792-14.854,0-19.922,0-19.922l-.5-5.336-.268-2.959v-.291l-.478,3.029c-.874,5.581-2.738,17.161-3.5,19.549a24.629,24.629,0,0,1-2.039,4.94s1.037,5.942,0,7.526a3.681,3.681,0,0,0-.151,3.367s.99,4.951-1.981,6.99,0,2.971,0,2.971-2.179,4.753-2.971,6.734a8.727,8.727,0,0,0,0,4.742L546.8,768.27a58.253,58.253,0,0,0-1.165,11.289c.2,4.544-1.782,15.041-1.782,15.041s-15.239,0-17.592-1.783,3.938-19.2,3.938-19.2,1.783-30.489,1.386-31.281,0-6.734,1.386-7.922,0-3.565,0-3.565-.4-4.753,0-5.942a21.5,21.5,0,0,0-.07-5.149s-1.317-9.693-1.515-15.239-1.165-18.023-1.165-18.023,1.025-7.7,1.165-11.382a13.223,13.223,0,0,1,1.41-4.66,42.608,42.608,0,0,1,2.936-5.184s46.927-13.852,48.931-12.466c.513.361,1.281,2.831,2.027,6.454C588.687,669.359,590.738,688.174,587.534,695.164Z" transform="translate(-517.387 -531.22)" opacity="0.15"/>
        <circle id="Ellipse_217" data-name="Ellipse 217" cx="13.666" cy="13.666" r="13.666" transform="translate(27.577 15.625)" fill="#a1616a"/>
        <path id="Path_565" data-name="Path 565" d="M585.631,659.258c-1.573.8-2.621,1.363-2.621,1.363s-22.136,10.485-28.5,9.9c-4.881-.466-17.336-.21-22.753-.07a42.641,42.641,0,0,1,2.936-5.184s46.927-13.852,48.931-12.466C584.082,653.165,584.851,655.635,585.631,659.258Z" transform="translate(-516.393 -531.22)" opacity="0.1"/>
        <path id="Path_566" data-name="Path 566" d="M549.6,592.781s-12.676,1.981-15.635,3.961-8.913,5.744-8.913,13.852a78.828,78.828,0,0,1-2.179,18.815c-.792,2.33,12.478,21.577,12.478,21.577L530.6,680.112s19.025-.594,25.351,0,28.5-9.9,28.5-9.9,13.06-6.92,15.833-7.118-5.546-15.25-5.546-15.25-12.815-24.349-10.683-28.31a54.12,54.12,0,0,0,3.763-9.7l-2.33-20.19a7.771,7.771,0,0,0-6.536.99c-2.971,2.179-13.072.99-13.072.99Z" transform="translate(-517.865 -541.681)" fill="#ffc107"/>
        <path id="Path_567" data-name="Path 567" d="M528.575,623.925l-4.951,1.386-1.375,18.641s1.771,4.951,0,6.536-2.179,35.44-2.179,35.44a12.92,12.92,0,0,0,12.466.99s-.99-3.763,1.981-17.475,2.948-20.516,2.948-20.516,0-17.021,1.386-19.805,0-9.7,0-9.7-2.773-3.763-2.575-5.149S528.575,623.925,528.575,623.925Z" transform="translate(-518.322 -537.583)" opacity="0.1"/>
        <path id="Path_568" data-name="Path 568" d="M530.674,678.471a12.618,12.618,0,0,1-8.924-.338,28.531,28.531,0,0,1,1.27-2.959L528.4,671.9S529.5,674.708,530.674,678.471Z" transform="translate(-518.045 -528.052)" opacity="0.1"/>
        <path id="Path_569" data-name="Path 569" d="M528.326,623.925l-4.951,1.386-1.386,18.641s1.783,4.951,0,6.536-2.179,35.44-2.179,35.44a12.944,12.944,0,0,0,12.478.99s-.99-3.763,1.981-17.475,2.959-20.516,2.959-20.516,0-17.021,1.386-19.805,0-9.7,0-9.7-2.761-3.763-2.563-5.149S528.326,623.925,528.326,623.925Z" transform="translate(-518.365 -537.583)" fill="#ffc107"/>
        <path id="Path_570" data-name="Path 570" d="M572.051,625.09s-2.575,22.136-10.1,26.33C562.008,651.42,578.785,646.666,572.051,625.09Z" transform="translate(-511.411 -535.777)" opacity="0.1"/>
        <path id="Path_571" data-name="Path 571" d="M538.16,626.79s9.32,4.555,7.13,7.712S538.16,626.79,538.16,626.79Z" transform="translate(-515.337 -535.497)" opacity="0.1"/>
        <path id="Path_572" data-name="Path 572" d="M538.16,634.6s5.942,6.14,4.753,8.318S538.16,634.6,538.16,634.6Z" transform="translate(-515.337 -534.208)" opacity="0.1"/>
        <path id="Path_573" data-name="Path 573" d="M579.29,590.93s2.33,3.961,2.54,6.536S579.29,590.93,579.29,590.93Z" transform="translate(-508.549 -541.415)" opacity="0.1"/>
        <path id="Path_574" data-name="Path 574" d="M579.29,586.4s1.165-.99,4.147,0S579.29,586.4,579.29,586.4Z" transform="translate(-508.549 -542.234)" opacity="0.1"/>
        <path id="Path_575" data-name="Path 575" d="M571.912,686.272a27.459,27.459,0,0,1-14.47-1.852l-2.5,6.384-.268-2.959c.408-2.482,1.165-5.138,2.773-5.825A23.965,23.965,0,0,0,571.912,686.272Z" transform="translate(-512.612 -526.382)" opacity="0.1"/>
        <path id="Path_576" data-name="Path 576" d="M534.62,692.81s12.175,2.551,15.588,2.074Z" transform="translate(-515.921 -524.601)" opacity="0.1"/>
        <path id="Path_577" data-name="Path 577" d="M535.7,695.553s5.2-.221,7.794.816Z" transform="translate(-515.743 -524.152)" opacity="0.1"/>
        <path id="Path_578" data-name="Path 578" d="M536.21,697.39a45.442,45.442,0,0,0,7.2.967Z" transform="translate(-515.659 -523.845)" opacity="0.1"/>
        <path id="Path_579" data-name="Path 579" d="M536,720.982c.233-.151,10.4-2.516,11.65-.816Z" transform="translate(-515.693 -520.188)" opacity="0.1"/>
        <path id="Path_580" data-name="Path 580" d="M536,723.525s8.843-1.037,9.064,0S536,723.525,536,723.525Z" transform="translate(-515.693 -519.608)" opacity="0.1"/>
        <path id="Path_581" data-name="Path 581" d="M536,726.1s9.437-1.934,10.485-1.48S536,726.1,536,726.1Z" transform="translate(-515.693 -519.363)" opacity="0.1"/>
        <path id="Path_582" data-name="Path 582" d="M537.855,783.561l-10.695,7.351s.058-.862.163-2.132a29.325,29.325,0,0,1,5.476-8.936c2.412-.617,3.938,0,4.882,1.1A25.988,25.988,0,0,0,537.855,783.561Z" transform="translate(-517.152 -510.278)" opacity="0.1"/>
        <path id="Path_583" data-name="Path 583" d="M539.543,790.106a26.554,26.554,0,0,0-2.225,10.916,16.834,16.834,0,0,1-2.33,8.8,8.477,8.477,0,0,1-.746,1.072s-7.433,0-10.031-2.214a2.527,2.527,0,0,1-.687-.827c-1.491-2.971,2.889-14.33,2.889-14.33a31.538,31.538,0,0,1,6.99-13.433C541.768,777.931,539.543,790.106,539.543,790.106Z" transform="translate(-517.803 -510.24)" fill="#35323e"/>
        <path id="Path_584" data-name="Path 584" d="M534.9,807.871a8.47,8.47,0,0,1-.746,1.072s-7.433,0-10.031-2.214c1.281-4.229,5.359-17.033,7.27-14.854S534.466,803.712,534.9,807.871Z" transform="translate(-517.654 -508.293)" opacity="0.1"/>
        <path id="Path_585" data-name="Path 585" d="M532.563,792.666l-.513,19.2h2.493s.4-16.823,1.515-19.176S532.563,792.666,532.563,792.666Z" transform="translate(-516.345 -508.292)" fill="#35323e"/>
        <path id="Path_586" data-name="Path 586" d="M560.491,795.786s-10.916-10.31-9.81-11.126a5.159,5.159,0,0,0,.874-2.33c2.1-.373,5.685.513,8.691,8.889C560.316,793.607,560.491,795.786,560.491,795.786Z" transform="translate(-513.283 -509.839)" opacity="0.1"/>
        <path id="Path_587" data-name="Path 587" d="M562.509,807.245a1.522,1.522,0,0,1-.268.081,76.023,76.023,0,0,1-8.656,0,1.876,1.876,0,0,1-1.817-1.864v-2.516c-.128-2.924-.489-6.408-1.526-7.2-1.852-1.41-3.332-6.268,0-12.4,0,0,6.384-4.87,10.986,9.775,0,0,.443,4.182,2.447,5.674S563.394,806.8,562.509,807.245Z" transform="translate(-513.67 -509.787)" fill="#35323e"/>
        <path id="Path_588" data-name="Path 588" d="M561.744,805.578a75.984,75.984,0,0,1-8.656,0,1.876,1.876,0,0,1-1.817-1.864V801.2c.8-3.5,1.957-7.2,3.5-8.027C554.66,793.159,559.169,792.646,561.744,805.578Z" transform="translate(-513.173 -508.039)" opacity="0.1"/>
        <path id="Path_589" data-name="Path 589" d="M455.38,701.962l1.188,15.961h1.526V700.61Z" transform="translate(-418.052 -417.273)" fill="#35323e"/>
        <path id="Path_590" data-name="Path 590" d="M557.644,554.88a27.239,27.239,0,0,0-12.186,3.914,5.057,5.057,0,0,0-2.33,2.33,7.735,7.735,0,0,0-.186,2.843c.128,8.155-9.006,14.388-8.714,22.567.116,3.25,1.748,6.268,2.039,9.507.5,5.394-2.691,10.369-5.755,14.842a12.268,12.268,0,0,0,8.679-2.878,65.789,65.789,0,0,1,1.165,33.18h4.381a3.378,3.378,0,0,1,1.281.163,3.04,3.04,0,0,1,1.014.757c4.089,4.066,6.839,10.089,5.266,15.658l9.32-3.5a27.963,27.963,0,0,0,6.443-3.064,9.32,9.32,0,0,0,3.973-5.732c.245-1.421.175-3.134,1.34-3.961a7.56,7.56,0,0,1,1.841-.676c2.563-.909,3.693-3.868,4.206-6.524a37.281,37.281,0,0,0,.594-9.926c-.408-5.557-2.05-11.208-.7-16.625.769-3.041,2.47-5.825,2.61-9.029.221-5.184-3.833-9.658-4.439-14.819-.419-3.588.874-7.223.454-10.823a11.65,11.65,0,0,0-6.116-8.831c-1.165-.594-2.4-.99-3.5-1.631-2.586-1.5-4.229-4.206-6.571-6.058s-6.256-2.551-8.015-.14Z" transform="translate(-516.599 -547.364)" opacity="0.1"/>
        <path id="Path_591" data-name="Path 591" d="M557.644,554.37a27.239,27.239,0,0,0-12.186,3.914,5.056,5.056,0,0,0-2.33,2.33,7.735,7.735,0,0,0-.186,2.843c.128,8.155-9.006,14.388-8.714,22.567.116,3.25,1.748,6.28,2.039,9.507.5,5.406-2.691,10.369-5.755,14.842a12.267,12.267,0,0,0,8.726-2.843,65.789,65.789,0,0,1,1.165,33.18h4.381a3.376,3.376,0,0,1,1.281.163,3.04,3.04,0,0,1,1.014.757c4.089,4.066,6.839,10.089,5.266,15.658l9.32-3.5a27.966,27.966,0,0,0,6.443-3.064A9.321,9.321,0,0,0,572.078,645c.245-1.421.175-3.134,1.34-3.961a7.559,7.559,0,0,1,1.841-.676c2.563-.909,3.693-3.868,4.206-6.524a37.281,37.281,0,0,0,.594-9.926c-.408-5.557-2.05-11.208-.7-16.625.769-3.041,2.47-5.883,2.61-9.029.221-5.184-3.833-9.658-4.439-14.819-.419-3.588.874-7.223.454-10.823a11.65,11.65,0,0,0-6.116-8.831c-1.165-.594-2.4-.99-3.5-1.631-2.586-1.5-4.229-4.206-6.571-6.058s-6.256-2.551-8.015-.14Z" transform="translate(-516.599 -547.448)" fill="#a26565"/>
        <g id="Group_55" data-name="Group 55" transform="translate(13.981 14.017)" opacity="0.1">
          <path id="Path_592" data-name="Path 592" d="M541.2,560.46v.548C541.189,560.833,541.2,560.646,541.2,560.46Z" transform="translate(-528.817 -560.46)"/>
          <path id="Path_593" data-name="Path 593" d="M570.88,577.871a50.2,50.2,0,0,0,.524-7.561,49.989,49.989,0,0,0-.524,7.561Z" transform="translate(-523.918 -558.834)"/>
          <path id="Path_594" data-name="Path 594" d="M535.77,588.775c-.268-2.948-1.643-5.72-1.969-8.645a10.689,10.689,0,0,0-.07,1.619c.117,3.216,1.713,6.21,2.027,9.414a11.646,11.646,0,0,0,.012-2.388Z" transform="translate(-530.049 -557.214)"/>
          <path id="Path_595" data-name="Path 595" d="M572.555,598.765a20.18,20.18,0,0,0-.489,5.907,18.254,18.254,0,0,1,.489-3.425c.769-3.041,2.47-5.883,2.61-9.029a10.115,10.115,0,0,0-.082-1.678C574.734,593.406,573.254,595.981,572.555,598.765Z" transform="translate(-523.729 -555.496)"/>
          <path id="Path_596" data-name="Path 596" d="M539.226,597.83a12.384,12.384,0,0,1-6.99,2.866c-.547.839-1.165,1.678-1.666,2.482a12.268,12.268,0,0,0,8.656-2.82,65.731,65.731,0,0,1,2.761,17.778,65.44,65.44,0,0,0-2.761-20.306Z" transform="translate(-530.57 -554.293)"/>
          <path id="Path_597" data-name="Path 597" d="M576.424,621.23c-.524,2.668-1.654,5.627-4.217,6.524a7.132,7.132,0,0,0-1.841.687c-1.165.827-1.1,2.54-1.34,3.949a9.319,9.319,0,0,1-3.973,5.732,27.959,27.959,0,0,1-6.443,3.064l-8.889,3.332a12.168,12.168,0,0,1-.431,2.645l9.32-3.5a27.961,27.961,0,0,0,6.443-3.064,9.32,9.32,0,0,0,3.973-5.732c.245-1.421.175-3.134,1.34-3.961a7.562,7.562,0,0,1,1.841-.676c2.563-.909,3.693-3.868,4.217-6.524a37.736,37.736,0,0,0,.664-8.411A38.97,38.97,0,0,1,576.424,621.23Z" transform="translate(-527.481 -551.41)"/>
          <path id="Path_598" data-name="Path 598" d="M545.716,627.211a3.216,3.216,0,0,0-1.014-.757,3.377,3.377,0,0,0-1.281-.163h-3.88c-.151.827-.315,1.654-.5,2.47h4.38a3.379,3.379,0,0,1,1.282.163,3.042,3.042,0,0,1,1.013.757,18.78,18.78,0,0,1,5.65,11.126C551.867,635.868,549.316,630.788,545.716,627.211Z" transform="translate(-529.172 -549.597)"/>
        </g>
        <path id="Path_599" data-name="Path 599" d="M526.12,641.094s3.5-1.491,4.334,0S526.12,641.094,526.12,641.094Z" transform="translate(-517.324 -533.245)" opacity="0.1"/>
        <path id="Path_600" data-name="Path 600" d="M527.17,643.254s3.5-1.491,4.334,0S527.17,643.254,527.17,643.254Z" transform="translate(-517.151 -532.889)" opacity="0.1"/>
      </g>
      <path id="Path_601" data-name="Path 601" d="M311.82,151.8l.315,2.447,10.637,1.5s.874-.652,2.237-1.538c2.528-1.643,6.746-4.113,10.357-4.812,5.557-1.1,23.3-9.052,17.569-9.577s-5.115.664-5.115.664-6.291-6.175-12.815-.524c-4.928,4.287-15.775,8.889-20.7,10.858Z" transform="translate(-59.485 -83.335)" fill="#efb7b9"/>
      <path id="Path_602" data-name="Path 602" d="M350.5,125.769a18.513,18.513,0,0,1,5.091-1.3,6.244,6.244,0,0,1,4.858,1.619c.687.711,1.165,1.619,1.794,2.33,3.239,3.5,9.53.874,13.433,3.577,2.4,1.654,3.146,4.8,4,7.6s2.4,5.883,5.266,6.478a15.622,15.622,0,0,0,4.159-.163,4.078,4.078,0,0,1,3.728,1.375c1.328,2-.5,5.382,1.421,6.815,1.713,1.27,4.835-.513,6.035,1.27a2.645,2.645,0,0,1-.408,2.913,20.238,20.238,0,0,0-1.957,2.447,3.716,3.716,0,0,0,3.658,5.429c1.165-.117,2.5-.816,3.565-.21a2.551,2.551,0,0,1,1.072,1.992,5.231,5.231,0,0,1-4.66,5.534c-2.062.128-3.961-.99-5.825-1.934s-4.008-1.748-5.93-.967a9.461,9.461,0,0,0-2.388,1.689,26.328,26.328,0,0,1-7.328,4.346c-2.33.909-5.068,1.468-7.316.326-2.528-1.293-3.833-4.45-6.513-5.406s-5.744.827-8.307,2.33-6,2.8-8.318.92-1.724-6.058-3.25-8.878a8.633,8.633,0,0,0-2.435-2.68c-1.713-1.328-3.658-2.33-5.371-3.612a8.983,8.983,0,0,1-3.681-5.149c-.5-2.551.722-5.114,2.1-7.316s2.994-4.369,3.5-6.92c.326-1.911,0-3.9.431-5.825a7.153,7.153,0,0,1,4.66-4.893c1.258-.431,1.491-.326,2.12-1.433a4.579,4.579,0,0,1,2.808-2.3Z" transform="translate(-55.698 -85.505)" fill="#f86d70"/>
      <g id="Group_56" data-name="Group 56" transform="translate(279.139 62.563)" opacity="0.1">
        <path id="Path_603" data-name="Path 603" d="M384.871,144.72a9.728,9.728,0,0,1,.2,3.414,9.052,9.052,0,0,1-.2-3.414Z" transform="translate(-326.582 -144.72)"/>
        <path id="Path_604" data-name="Path 604" d="M389.093,156.544a3.669,3.669,0,0,0-.373,1.247,3.786,3.786,0,0,1,.128-3.157,20.239,20.239,0,0,1,1.957-2.447,3.833,3.833,0,0,0,.571-1.107.827.827,0,0,1,.082.1,2.6,2.6,0,0,1-.408,2.913,21.684,21.684,0,0,0-1.957,2.447Z" transform="translate(-325.981 -143.67)"/>
        <path id="Path_605" data-name="Path 605" d="M338.337,153.847c1.713,1.3,3.658,2.33,5.371,3.612a8.784,8.784,0,0,1,2.435,2.68c1.526,2.819.757,6.862,3.25,8.878s5.767.617,8.318-.92,5.5-3.344,8.307-2.33,3.984,4.113,6.513,5.406c2.248,1.165,4.975.583,7.316-.326a26.33,26.33,0,0,0,7.328-4.346,9.46,9.46,0,0,1,2.388-1.689c1.922-.781,4.089,0,5.93.967s3.751,2.062,5.825,1.934a5.266,5.266,0,0,0,4.66-4.66,3.7,3.7,0,0,1,.245,1,5.219,5.219,0,0,1-4.66,5.534c-2.074.128-3.973-.99-5.825-1.934s-4.019-1.748-5.942-.967a9.612,9.612,0,0,0-2.33,1.689,26.492,26.492,0,0,1-7.328,4.346c-2.33.909-5.08,1.468-7.316.326-2.54-1.293-3.833-4.45-6.524-5.406s-5.744.827-8.3,2.33-6,2.784-8.318.92c-2.5-2.016-1.736-6.058-3.262-8.878a8.493,8.493,0,0,0-2.435-2.68c-1.7-1.328-3.647-2.33-5.371-3.612a8.913,8.913,0,0,1-3.67-5.149,5.991,5.991,0,0,1-.117-1.363A9.425,9.425,0,0,0,338.337,153.847Z" transform="translate(-334.828 -143.979)"/>
      </g>
      <path id="Path_606" data-name="Path 606" d="M342.3,203.36l-3.856.827s3.81,6.256,9.67,2.155S342.3,203.36,342.3,203.36Z" transform="translate(-55.092 -72.503)" fill="#4c4981"/>
      <path id="Path_607" data-name="Path 607" d="M342.3,203.36l-3.856.827s3.81,6.256,9.67,2.155S342.3,203.36,342.3,203.36Z" transform="translate(-55.092 -72.503)" opacity="0.1"/>
      <path id="Path_608" data-name="Path 608" d="M413.65,254.591s5.347,2.761,10.334,5.965c3.577,2.33,6.99,4.8,8.074,6.687,2.656,4.509,15.553,9.378,15.553,9.378l12.815,9.751c3.017,1,5.953,4.66,7.153,6.3.373.5.571.816.571.816l5.138-.664,2.7-3.5s.687-7.747-4.66-7.654a7.632,7.632,0,0,1-3.006-.769c-5.732-2.54-13.759-10.485-13.759-10.485s-13.643-17.044-17.72-17.6a6.689,6.689,0,0,1-1.282-.326c-4.147-1.456-10.089-6.8-10.089-6.8Z" transform="translate(-42.68 -65.494)" fill="#efb7b9"/>
      <path id="Path_609" data-name="Path 609" d="M368.288,298.407c1.351,8.155,7.561,23.813,9.553,27.075,2.47,4.043,3.775,12.128,3.775,12.128l.722,5.615a6.7,6.7,0,0,0,.8,2.249,12.814,12.814,0,0,0,.711,1.165l10.276-3.157s-.594-2.33-1.491-5.079-2.249-6.116-3.5-7.375c-2.5-2.47-2.889-11.161-2.889-11.161s-2.085-16.73-2.726-18.827a28.614,28.614,0,0,1-1.165-6.175c-.093-1.165-.163-2.4-.175-3.856a79.218,79.218,0,0,0-1.619-12.419l-11.988,2.179-.315,13.386a8.97,8.97,0,0,0,.023,4.252Z" transform="translate(-50.211 -60.065)" fill="#efb7b9"/>
      <path id="Path_610" data-name="Path 610" d="M459.93,287.667c.373.5.571.816.571.816l5.138-.664,2.7-3.5s.687-7.747-4.66-7.654a7.632,7.632,0,0,1-3.006-.769c-.431,2.33,2.167,4.241,2.167,4.241s1.072.781.816,4.427C463.507,287.049,461.3,287.574,459.93,287.667Z" transform="translate(-35.043 -60.509)" opacity="0.1"/>
      <path id="Path_611" data-name="Path 611" d="M459.45,289.639c.338,1.247,3.577,3.087,5.825,4.229,1.107.571,1.969.967,2.144,1.049.524.256,3.239-2.773,3.612-5.208s6.862-10.043,6.862-10.043a27.252,27.252,0,0,0,2.412-9.507c.245-3.32-1.165-3.577-2.761-2.831a11.045,11.045,0,0,0-3.087,2.423,8.155,8.155,0,0,1-3.984,2.062,19.525,19.525,0,0,0-5.755,2.458c-1.573,1.014-3.1,2.249-3.379,3.344-.594,2.388,2.132,4.415,2.132,4.415s1.072.792.827,4.427S459.415,289.523,459.45,289.639Z" transform="translate(-35.122 -61.98)" fill="#ff6484"/>
      <path id="Path_612" data-name="Path 612" d="M464.45,293.868c1.107.571,1.969.967,2.144,1.049.524.256,3.239-2.773,3.612-5.208s6.862-10.043,6.862-10.043a27.252,27.252,0,0,0,2.412-9.507c.245-3.32-1.165-3.577-2.761-2.831-.268,2.633-.932,7.747-2.33,10.415C472.827,280.913,466.256,291.107,464.45,293.868Z" transform="translate(-34.297 -61.98)" opacity="0.1"/>
      <path id="Path_613" data-name="Path 613" d="M381.159,336.772a1.515,1.515,0,0,1-.093.2,12.83,12.83,0,0,0,.711,1.165l10.276-3.157s-.594-2.33-1.491-5.08c-4.066-1.165-9.891,5.977-9.891,5.977Z" transform="translate(-48.123 -51.619)" opacity="0.1"/>
      <path id="Path_614" data-name="Path 614" d="M380.565,344.362s8.563,3.006,12.431,2.54c2.924-.349,3.052-1.713,2.854-4.509-.07-.885-.163-1.922-.21-3.122-.2-4.951-2.19-5.942-2.19-5.942-3.262-8.563-12.664,2.924-12.664,2.924l.5.932a10.206,10.206,0,0,0-.967,4.66A13.245,13.245,0,0,0,380.565,344.362Z" transform="translate(-48.181 -51.555)" fill="#ff6484"/>
      <path id="Path_615" data-name="Path 615" d="M380.565,342.7s8.563,3.006,12.431,2.54c2.924-.349,3.052-1.713,2.854-4.509a9.052,9.052,0,0,1-6.99,2.015,27.683,27.683,0,0,1-8.54-2.551A13.244,13.244,0,0,0,380.565,342.7Z" transform="translate(-48.181 -49.897)" opacity="0.1"/>
      <path id="Path_616" data-name="Path 616" d="M344,166.01l3.332,14.668.676,3.017,6.21.781,6.384.816,6.99-2.528s1.946-6.606.338-11.569a7.3,7.3,0,0,0-3.215-4.241,6.523,6.523,0,0,1-1.34-1.049,5.59,5.59,0,0,1-1.165-1.6,6.757,6.757,0,0,1-.606-2.33c-.349-3.949,2.155-8.272,2.155-8.272s-14.749-5.033-13.6-1.782c.746,2.109-1.328,5.825-2.878,8.085-.839,1.258-1.526,2.12-1.526,2.12Z" transform="translate(-54.175 -81.149)" fill="#efb7b9"/>
      <circle id="Ellipse_218" data-name="Ellipse 218" cx="12.804" cy="12.804" r="12.804" transform="translate(290.361 53.627)" opacity="0.1"/>
      <circle id="Ellipse_219" data-name="Ellipse 219" cx="12.804" cy="12.804" r="12.804" transform="translate(290.291 53.149)" fill="#efb7b9"/>
      <path id="Path_617" data-name="Path 617" d="M345,212.776c.606,2.819,3.39,7.258,3.39,7.258l17.872,4.392L379.074,211.1v-.082c-.4-1.247-5.278-17.009-1.748-20.9s2.33-15.425,2.33-15.425-6.384-7.351-7.666-9.122-9.577-3.169-9.577-3.169c.408.559.792,1.1,1.165,1.6a16.124,16.124,0,0,1,2.039,4.334,6.454,6.454,0,0,1-.175,4.66,5.593,5.593,0,0,0-.431,1.165c-1.4,6.116-7.759,5.266-10.3,4.66-.652-.163-1.049-.3-1.049-.3l-6.093.2-3.821.128s1.736,30.128,1.328,32.528a3.5,3.5,0,0,0-.082,1.41Z" transform="translate(-54.216 -79.24)" fill="#ff6484"/>
      <path id="Path_618" data-name="Path 618" d="M343.692,178.1l11.091-1.456h-.21a10.856,10.856,0,0,1-1.049-.291l-6.093.2-3.821.128S343.645,177.166,343.692,178.1Z" transform="translate(-54.239 -76.938)" fill="#925978"/>
      <path id="Path_619" data-name="Path 619" d="M259.12,122.776l4.812,1.177,7.561-.99,1.981-2.062Z" transform="translate(42.763 19.953)" fill="#925978"/>
      <path id="Path_620" data-name="Path 620" d="M265.98,124.246l2.179.536.9-.932Z" transform="translate(43.896 20.439)" fill="#925978"/>
      <path id="Path_621" data-name="Path 621" d="M345.025,213.393c2.854.291,5.487.431,5.487.431l14.726-.548v-15.39a22.136,22.136,0,0,0-5.93-3.914c-2.563-.885-5.592-3.6-5.021-10.788a10.157,10.157,0,0,1,.128-1.282,17.468,17.468,0,0,0,.128-2.412,12.932,12.932,0,0,0-4.078-9.483l-.221-.186-2.4-11.161a2.7,2.7,0,0,0-.478.058c-.839,1.258-1.526,2.12-1.526,2.12l-1.771,3.88,3.332,14.668-3.821.128s1.736,30.128,1.328,32.528a3.5,3.5,0,0,0,.117,1.351Z" transform="translate(-54.244 -79.857)" opacity="0.1"/>
      <path id="Path_622" data-name="Path 622" d="M352.206,213.879l14.726-.548V197.953a21.8,21.8,0,0,0-5.9-3.949c-2.715-.944-5.942-3.926-4.893-12.081a13.363,13.363,0,0,0-3.949-11.895l-.221-.186-2.4-11.161a5.219,5.219,0,0,0-3.8,2.179,10.668,10.668,0,0,1-.885,1.235,2.33,2.33,0,0,1-2.959.885c-1.549-.687-8.225-3.5-9.728-.746s-1.783,19.246-1.783,19.246a12.617,12.617,0,0,1,4.334,7.13c1.025,4.66,2.738,4.823,2.738,4.823l1.841,13.514s1.678,2.936.431,4.555" transform="translate(-56.416 -79.854)" fill="#444053"/>
      <path id="Path_623" data-name="Path 623" d="M342.84,162.124l2.5,7.514,4.8.419-.221-.186-2.4-11.161a5.219,5.219,0,0,0-3.8,2.179,10.671,10.671,0,0,1-.885,1.235Z" transform="translate(-54.366 -79.849)" fill="#444053"/>
      <path id="Path_624" data-name="Path 624" d="M311.82,149.937l.315,2.447,10.637,1.5s.874-.652,2.237-1.538c-1.165-.256-6.408-1.41-9.18-2.33-1.014-.315-1.7-.583-1.724-.769s.07-.21.233-.35Z" transform="translate(-59.485 -81.468)" opacity="0.1"/>
      <path id="Path_625" data-name="Path 625" d="M301.516,166.272s12.046,9.145,19.514,10.625c0,0,10.485,3.111,14.633,6.7l4.532-17.347-2.691-1.9s-3.3,2.039-6.14,1.363-5.965-1.072-5.965-1.072a46.81,46.81,0,0,0-7.643-2.1c-2.027-.163-1.165-2.8.816-4.194a6.677,6.677,0,0,1,.85-.478,2.6,2.6,0,0,0,3.414.769,7.6,7.6,0,0,0,1.981-1.841h0a24.225,24.225,0,0,0,2.237-3.39s-6.28-1.34-9.413-2.33c-1.014-.315-1.7-.583-1.724-.757-.093-.722,5.6-2.994,5.6-2.994s-4.882-2.33-6.862-.652c0,0,1.27.967.245,1.911s-13.538,10.544-13.538,10.544S295.155,162.171,301.516,166.272Z" transform="translate(-61.659 -81.935)" fill="#444053"/>
      <path id="Path_626" data-name="Path 626" d="M310,156.607l6.664.955a6.671,6.671,0,0,1,.85-.478,2.6,2.6,0,0,0,3.414.769,7.6,7.6,0,0,0,1.981-1.841h0a25.1,25.1,0,0,0,1.829-2.843s-6.291-1.351-9.413-2.33Z" transform="translate(-59.786 -81.147)" opacity="0.1"/>
      <path id="Path_627" data-name="Path 627" d="M310.33,156.15l7.107,1.014a2.6,2.6,0,0,0,3.414.769c2.039-1.165,4.217-5.243,4.217-5.243s-6.28-1.34-9.413-2.33Z" transform="translate(-59.731 -81.227)" fill="#444053"/>
      <path id="Path_628" data-name="Path 628" d="M425.475,245.65,413.65,254.6s5.347,2.761,10.334,5.965c4.357-2.948,8.47-5.662,11.58-8.155C431.417,251,425.475,245.65,425.475,245.65Z" transform="translate(-42.68 -65.501)" opacity="0.1"/>
      <path id="Path_629" data-name="Path 629" d="M368.289,298.42a40.4,40.4,0,0,0,8.668-2.074s2.179-.478,5.417-1.561c-.093-1.165-.163-2.4-.175-3.856a79.222,79.222,0,0,0-1.619-12.419l-11.988,2.179-.315,13.386a8.971,8.971,0,0,0,.012,4.346Z" transform="translate(-50.211 -60.078)" opacity="0.1"/>
      <path id="Path_630" data-name="Path 630" d="M350.933,256.734c2.423,3.577,9.006,18.722,9.006,18.722a63.239,63.239,0,0,0,5.01,7.724c2.621,3.309,4.439,10.718,6.431,16.648s-.594,4.812-.3,7.934,11.534-.9,11.534-.9,23.021-5.068,30.046-19.107,35.114-26.8,40.776-34.706-1.619-4.66-1.328-8.924-2.971-7.876-2.971-7.876-10.59-2.982-12.314-5.068-10.182-7.293-10.182-7.293-7.969-3.5-8.982-4.66-10.485-4.94-13.363-5.662-5.732-4.835-5.732-4.835-1.794.233-4.439-2.33S380.4,201.64,380.4,201.64c-18.955,13.887-32.038,11.907-32.038,11.907l-.3,2.633C338,229.286,348.533,253.169,350.933,256.734Z" transform="translate(-54.21 -72.764)" fill="#ff6484"/>
      <path id="Path_631" data-name="Path 631" d="M347.47,216.19s16.31,5.394,32.341-14.54c-18.955,13.887-32.038,11.907-32.038,11.907Z" transform="translate(-53.602 -72.762)" opacity="0.1"/>
      <path id="Path_632" data-name="Path 632" d="M371.65,222.13s21.984,31.724,23.3,32.889S372.8,221.734,371.65,222.13Z" transform="translate(-49.612 -69.383)" opacity="0.1"/>
      <path id="Path_633" data-name="Path 633" d="M362.93,220s15.227,23.638,14.912,26.8C377.842,246.866,363.1,224.148,362.93,220Z" transform="translate(-51.051 -69.734)" opacity="0.1"/>
      <path id="Path_634" data-name="Path 634" d="M355.521,225.61s2.808,13.223-1.421,20.7Z" transform="translate(-52.508 -68.808)" opacity="0.1"/>
      <path id="Path_635" data-name="Path 635" d="M350.508,226.27s-.186,11.429-1.468,13.782Z" transform="translate(-53.343 -68.699)" opacity="0.1"/>
      <path id="Path_636" data-name="Path 636" d="M287.07,126.49l20.213,7.922-7.4.967Z" transform="translate(47.376 20.875)" opacity="0.1"/>
      <path id="Path_637" data-name="Path 637" d="M348.734,142.637c1.014.664,1.852,1.748,3.052,1.9a4.73,4.73,0,0,0,2.482-.617c2.016-.874,4.3-1.549,6.384-.862,2.971.99,4.6,4.4,7.561,5.417a5.209,5.209,0,0,0,6.757-3.693,6.641,6.641,0,0,0-2.33-6.233,13.876,13.876,0,0,0-6.28-2.854c-5.942-1.316-12.116-.874-18.186-.419a2.668,2.668,0,0,0-1.421.373c-.92.687-2.493,4.147-2.167,5.313C345.076,142.521,348.571,141.333,348.734,142.637Z" transform="translate(-54.085 -83.791)" opacity="0.1"/>
      <path id="Path_638" data-name="Path 638" d="M348.672,142.227c1.014.664,1.852,1.748,3.064,1.9a4.765,4.765,0,0,0,2.482-.617c2.016-.874,4.3-1.55,6.373-.862,2.971.99,4.6,4.4,7.573,5.417a5.278,5.278,0,0,0,4.427-.489,5.173,5.173,0,0,0,2.33-3.2,6.629,6.629,0,0,0-2.33-6.233,13.864,13.864,0,0,0-6.291-2.854c-5.942-1.317-12.116-.874-18.174-.419a2.668,2.668,0,0,0-1.421.373c-.92.687-2.5,4.148-2.167,5.313C344.979,142.088,348.509,140.923,348.672,142.227Z" transform="translate(-54.094 -83.859)" fill="#f86d70"/>
      <path id="Path_639" data-name="Path 639" d="M415.28,151.236l1.934,7.817,2.516-1.515,13.631-8.237s10.322-.373,11.126-8.679-11.476-.082-12.128.559a27.26,27.26,0,0,1-2.144,1.736l-12.7,7.072Z" transform="translate(-42.411 -83.442)" fill="#efb7b9"/>
      <path id="Path_640" data-name="Path 640" d="M415.28,149.387l1.934,7.817,2.516-1.515c-.559-3.5-1.421-6.792-2.214-7.549Z" transform="translate(-42.411 -81.593)" opacity="0.1"/>
      <path id="Path_641" data-name="Path 641" d="M357.51,198.491l2.773,16.31,16.45-3.5c-.4-1.247-5.278-17.009-1.748-20.9s2.33-15.425,2.33-15.425-6.384-7.351-7.666-9.122-9.577-3.169-9.577-3.169a6.757,6.757,0,0,1-.606-2.33,8.957,8.957,0,0,0-.629,1.736c0,2.982,1.165,5.021,4.392,6.524l.885.384c.5.2,1.049.384,1.631.571l.268.082c5.3,1.573,6.443,4.742,6.443,4.742a12.081,12.081,0,0,1,2.412,8.551C374.275,188.053,357.51,198.491,357.51,198.491Z" transform="translate(-51.945 -79.576)" opacity="0.1"/>
      <path id="Path_642" data-name="Path 642" d="M358.33,200.409l2.773,16.31,18.512-3.868s-.559-6.163-1.852-8.668-1.037-12.244-1.037-12.244c7.876-8.481,3.74-15.39,3.74-15.39S403.6,172.81,404,172.111s8.155-4.87,8.155-4.87,8.388-2.144,9.518-3.344a11.445,11.445,0,0,1,1.375-1.247,3.771,3.771,0,0,1,.454-.291l.617,5.348h.233a7.526,7.526,0,0,0,3.728-1.468c1.911-1.468-.5-17.475-2.33-18.07a2.214,2.214,0,0,0-1.072,0,11.65,11.65,0,0,0-4,2.155l-.315.256-.117.093s-10.485,4.113-12.571,6-18.384,4.3-18.384,4.3-7.3,1.724-8.248.676-12.093-2.749-13.025-1.165-3.5,1.351-3.5,1.351c-1.841-2.109-3.111-1.293-3.891-.082a8.272,8.272,0,0,0-.979,2.33c0,3.25,1.421,5.371,5.278,6.909a17.868,17.868,0,0,0,1.9.652c5.3,1.573,6.443,4.742,6.443,4.742a12.128,12.128,0,0,1,2.412,8.563C375.095,189.924,358.33,200.409,358.33,200.409Z" transform="translate(-51.81 -81.599)" fill="#444053"/>
      <path id="Path_643" data-name="Path 643" d="M415.871,148.124a1.666,1.666,0,0,1,.594,0c1.852.571,4.264,16.6,2.33,18.07a7.445,7.445,0,0,1-3.25,1.41h-.28l-.617-5.347a3.776,3.776,0,0,0-.454.291v-.221a13.98,13.98,0,0,0-2.633-11.872Z" transform="translate(-43.025 -81.6)" opacity="0.1"/>
      <path id="Path_644" data-name="Path 644" d="M414.623,162.344l.617,5.347a7.491,7.491,0,0,0,4.008-1.491c1.911-1.468-.5-17.475-2.33-18.07-1.468-.454-4.043,1.375-5.068,2.155A13.887,13.887,0,0,1,414.623,162.344Z" transform="translate(-42.977 -81.606)" fill="#444053"/>
      <path id="Path_645" data-name="Path 645" d="M364.753,169.02l2.656-2.5-6.99-6.746a8.272,8.272,0,0,0-.979,2.33C359.44,165.362,360.85,167.483,364.753,169.02Z" transform="translate(-51.627 -79.674)" fill="#444053"/>
      <path id="Path_646" data-name="Path 646" d="M348.571,140.51c1.014.664,1.852,1.748,3.052,1.9a4.73,4.73,0,0,0,2.482-.617c2.016-.874,4.3-1.549,6.384-.862,2.971.99,4.66,4.4,7.561,5.417a5.161,5.161,0,0,0,6.885-5.114,5.453,5.453,0,0,1,0,2.33,5.138,5.138,0,0,1-3.914,3.845,5.3,5.3,0,0,1-2.831-.151c-2.971-1.014-4.6-4.427-7.561-5.417-2.085-.687-4.369,0-6.384.862a4.73,4.73,0,0,1-2.482.617c-1.165-.151-2.05-1.235-3.064-1.9-.163-1.3-3.681-.117-4.124-1.678a1.758,1.758,0,0,1,0-.711C345.239,140.265,348.385,139.286,348.571,140.51Z" transform="translate(-54.086 -83.096)" opacity="0.1"/>
      <path id="Path_647" data-name="Path 647" d="M357.774,171.91s-1.48,4.148.4,5.534c0,0-2.05-5.476-3.25-5.359" transform="translate(-52.373 -77.67)" opacity="0.1"/>
      <path id="Path_648" data-name="Path 648" d="M436.728,137.3s-9.518,8.225-2.645,9.542S436.728,137.3,436.728,137.3Z" transform="translate(-39.72 -83.382)" fill="#efb7b9"/>
      <path id="Path_649" data-name="Path 649" d="M308.93,52.16l1.829,48.174L363.745,52.16Z" transform="translate(50.984 8.608)" fill="#fff"/>
      <path id="Path_650" data-name="Path 650" d="M308.93,52.16l1.829,48.174L363.745,52.16Z" transform="translate(50.984 8.608)" opacity="0.03"/>
      <ellipse id="Ellipse_220" data-name="Ellipse 220" cx="39.378" cy="7.573" rx="39.378" ry="7.573" transform="translate(947.951 798.78)" fill="#ffc107"/>
      <ellipse id="Ellipse_221" data-name="Ellipse 221" cx="4.59" cy="6" rx="4.59" ry="6" transform="translate(982.075 797.138)" fill="#3f3d56"/>
      <ellipse id="Ellipse_222" data-name="Ellipse 222" cx="4.59" cy="6" rx="4.59" ry="6" transform="translate(982.075 789.798)" fill="#3f3d56"/>
      <ellipse id="Ellipse_223" data-name="Ellipse 223" cx="4.59" cy="6" rx="4.59" ry="6" transform="translate(982.075 782.458)" fill="#3f3d56"/>
      <ellipse id="Ellipse_224" data-name="Ellipse 224" cx="4.59" cy="6" rx="4.59" ry="6" transform="translate(982.075 775.13)" fill="#3f3d56"/>
      <ellipse id="Ellipse_225" data-name="Ellipse 225" cx="4.59" cy="6" rx="4.59" ry="6" transform="translate(982.075 767.791)" fill="#3f3d56"/>
      <ellipse id="Ellipse_226" data-name="Ellipse 226" cx="4.59" cy="6" rx="4.59" ry="6" transform="translate(982.075 760.451)" fill="#3f3d56"/>
      <ellipse id="Ellipse_227" data-name="Ellipse 227" cx="4.59" cy="6" rx="4.59" ry="6" transform="translate(982.075 753.123)" fill="#3f3d56"/>
      <path id="Path_651" data-name="Path 651" d="M962.432,704.545a24.5,24.5,0,0,0,1.7-2.517L952.1,700.047l13.025.093a21.926,21.926,0,0,0,.419-17.394l-17.475,9.064,16.124-11.848a21.961,21.961,0,1,0-36.279,24.582,22.8,22.8,0,0,0-2.5,4l15.646,8.155-16.683-5.6a22.031,22.031,0,0,0,3.495,20.633,21.961,21.961,0,1,0,34.532,0,21.984,21.984,0,0,0,0-27.157Z" transform="translate(41.406 4.377)" fill="#ffc107"/>
      <path id="Path_652" data-name="Path 652" d="M923.205,711.216a21.938,21.938,0,0,0,4.66,13.584,21.961,21.961,0,1,0,34.531,0C965.368,721.06,923.205,708.746,923.205,711.216Z" transform="translate(41.406 11.278)" opacity="0.1"/>
    </g>
  </g>
</svg>
