<svg id="undraw_bookshelves_xekd" xmlns="http://www.w3.org/2000/svg" width="1054.712" height="866.082" viewBox="0 0 1054.712 866.082">
  <rect id="Rectangle_95" data-name="Rectangle 95" width="434.505" height="767.454" transform="translate(556.226)" fill="#3f3d56"/>
  <ellipse id="Ellipse_40" data-name="Ellipse 40" cx="527.356" cy="12.466" rx="527.356" ry="12.466" transform="translate(0 758.744)" fill="#3f3d56"/>
  <ellipse id="Ellipse_41" data-name="Ellipse 41" cx="362.216" cy="8.63" rx="362.216" ry="8.63" transform="translate(165.14 803.814)" fill="#3f3d56"/>
  <ellipse id="Ellipse_42" data-name="Ellipse 42" cx="293.753" cy="7.04" rx="293.753" ry="7.04" transform="translate(233.433 842.802)" fill="#3f3d56"/>
  <rect id="Rectangle_96" data-name="Rectangle 96" width="434.505" height="2.571" transform="translate(556.226 147.192)" fill="#d0cde1"/>
  <rect id="Rectangle_97" data-name="Rectangle 97" width="434.505" height="2.571" transform="translate(556.226 304.025)" fill="#d0cde1"/>
  <rect id="Rectangle_98" data-name="Rectangle 98" width="434.505" height="2.571" transform="translate(556.226 460.858)" fill="#d0cde1"/>
  <rect id="Rectangle_99" data-name="Rectangle 99" width="434.505" height="2.571" transform="translate(556.226 617.692)" fill="#d0cde1"/>
  <path id="Path_391" data-name="Path 391" d="M387.747,384.536h0l7.661-23.822,1.473,1.306a40.363,40.363,0,0,0,32.058,10.309l1.958-.2-7.661,23.822h0L417.979,412.3h0l-17.692,55.016h0l-5.258,16.35h0l-5.807,18.059-1.431-1.018a55.072,55.072,0,0,0-32.3-10.387l-1.756-.008,5.807-18.057h0L364.8,455.9h0l17.693-55.017h0Zm39.51-9.486a42.466,42.466,0,0,1-30.6-9.838l-6.468,20.112,30.6,9.839ZM420,397.61l-30.594-9.838-3.684,11.454,30.594,9.839Zm-62.756,90.17a57.377,57.377,0,0,1,30.6,9.839l4.74-14.739-30.6-9.838Zm5.527-17.186,30.594,9.839,3.684-11.455-30.594-9.839Zm4.471-13.9,30.6,9.839,17.692-55.016-30.595-9.839Z" transform="translate(407.824 -42.452)" fill="#d0cde1"/>
  <path id="Path_392" data-name="Path 392" d="M269.747,262.536h0l7.661-23.822,1.473,1.306a40.362,40.362,0,0,0,32.058,10.309l1.958-.2-7.661,23.822h0L299.979,290.3h0l-17.692,55.016h0l-5.258,16.351h0l-5.807,18.058-1.431-1.018a55.072,55.072,0,0,0-32.3-10.388l-1.756-.007,5.807-18.058h0L246.8,333.9h0l17.692-55.017h0Zm39.51-9.486a42.452,42.452,0,0,1-30.6-9.838l-6.468,20.112,30.6,9.839ZM302,275.61l-30.594-9.839-3.684,11.454,30.594,9.839Zm-62.756,90.17a57.386,57.386,0,0,1,30.6,9.838l4.74-14.738-30.6-9.839Zm5.527-17.186,30.594,9.839,3.684-11.455-30.594-9.838Zm4.471-13.9,30.6,9.839,17.692-55.016-30.595-9.839Z" transform="translate(673.384 -77.285)" fill="#d0cde1"/>
  <path id="Path_393" data-name="Path 393" d="M969.106,238.445a17.62,17.62,0,1,0-17.62-17.62A17.62,17.62,0,0,0,969.106,238.445Zm0-32.3a14.684,14.684,0,1,1-14.683,14.684A14.683,14.683,0,0,1,969.106,206.142Z" transform="translate(-901.863 -87.424)" fill="#3f3d56"/>
  <path id="Path_394" data-name="Path 394" d="M967.4,634.62h28.987V605.633H967.4Zm26.757-2.23H969.625V607.863h24.527Z" transform="translate(-931.973 27.477)" fill="#3f3d56"/>
  <path id="Path_395" data-name="Path 395" d="M632.508,283.813l19.772-21.2-21.2-19.772-19.771,21.2Zm16.62-21.088L632.4,280.661l-17.936-16.73L631.192,246Z" transform="translate(-138.83 -76.106)" fill="#3f3d56"/>
  <path id="Path_396" data-name="Path 396" d="M715.993,364.153l40.777,49.476-60.349,71.223-40.233-47.3Z" transform="translate(-526.903 103.972)" fill="#6c63ff"/>
  <path id="Path_397" data-name="Path 397" d="M715.993,364.153l40.777,49.476-60.349,71.223-40.233-47.3Z" transform="translate(-526.903 103.972)" opacity="0.1"/>
  <path id="Path_398" data-name="Path 398" d="M896.5,525.7h0a20.489,20.489,0,0,0-3.325-4.439l-37.452-37.968s-13.049-2.175-15.767,4.349L887.8,526.786Z" transform="translate(-671.421 -7.553)" fill="#f2f2f2"/>
  <path id="Path_399" data-name="Path 399" d="M961.622,525.168l-55.456,84.815s-5.437,3.806-10.874,1.631l-56.815-38.33,60.349-91.339,54.369,42.408Z" transform="translate(-731.484 -7.838)" fill="#6c63ff"/>
  <rect id="Rectangle_100" data-name="Rectangle 100" width="32.358" height="35.381" transform="translate(177.464 551.071) rotate(-146.051)" fill="#3f3d56"/>
  <path id="Path_400" data-name="Path 400" d="M856.7,461.639s-5.142,38.566,12.855,37.28,9-34.709,9-34.709Z" transform="translate(-673.219 -13.636)" fill="#ffb8b8"/>
  <path id="Path_401" data-name="Path 401" d="M805.62,355.352l21.854-2.571V350.21l20.568-2.571s44.993,84.844,42.422,138.836S853.184,777,853.184,777s-53.992-5.142-61.7-20.568l9-52.706,5.142-62.99s-34.709,176.116-50.135,176.116-60.419-9-56.563-15.426,50.135-204.4,50.135-204.4l5.142-96.414,11.57-141.407Z" transform="translate(-485.354 -46.185)" fill="#2f2e41"/>
  <circle id="Ellipse_43" data-name="Ellipse 43" cx="35.995" cy="35.995" r="35.995" transform="translate(265.839 108.626)" fill="#ffb8b8"/>
  <path id="Path_402" data-name="Path 402" d="M838.9,249.493s-14.141,32.138-3.857,46.279-55.277-23.139-55.277-23.139,32.138-30.852,33.423-44.993Z" transform="translate(-537.842 -80.447)" fill="#ffb8b8"/>
  <path id="Path_403" data-name="Path 403" d="M734.484,258.639s33.423,20.568,60.419,12.855L861.75,380.763,751.2,401.332,726.771,262.5Z" transform="translate(-492.769 -71.596)" fill="#d0cde1"/>
  <path id="Path_404" data-name="Path 404" d="M806.245,256.484s-5.142-6.428-11.57-2.571-47.564,5.142-50.135,21.854,61.7,271.244,61.7,271.244l10.284-2.571s-11.57-3.857,33.423-15.426,51.421-50.135,41.137-96.414-14.141-74.56-14.141-74.56Z" transform="translate(-548.403 -73.297)" fill="#575a89"/>
  <path id="Path_405" data-name="Path 405" d="M680.141,262.547s45.373,19.4,46.658,25.829S776.935,410.5,776.935,410.5l10.284,9-5.142,3.857,37.28,82.273s-1.286,10.284-20.568,10.284h-11.57s-19.283-97.7-32.138-115.7S659.193,279.139,680.141,262.547Z" transform="translate(-387.277 -70.481)" fill="#575a89"/>
  <path id="Path_406" data-name="Path 406" d="M866.622,265.7s-16.712-5.142-20.568,28.281-2.571,55.277-2.571,55.277l-16.712,174.83,35.995,3.857L894.9,331.264Z" transform="translate(-653.01 -69.661)" fill="#575a89"/>
  <path id="Path_407" data-name="Path 407" d="M761.829,677.346s0,25.71,11.57,29.567,46.279,34.709,5.142,33.423-37.28-20.568-37.28-20.568v-5.142l-10.284,5.142-20.568-5.142s-6.428-44.993,0-48.85S761.829,677.346,761.829,677.346Z" transform="translate(-405.517 44.472)" fill="#2f2e41"/>
  <path id="Path_408" data-name="Path 408" d="M832.671,709.622s-1.286,38.566,14.141,56.563,32.138,42.422,11.57,44.993-57.848-12.855-56.563-21.854,0-11.57,0-11.57h-6.428l-10.284-7.713s-6.428-62.99,5.142-68.132S832.671,709.622,832.671,709.622Z" transform="translate(-571.008 54.619)" fill="#2f2e41"/>
  <path id="Path_409" data-name="Path 409" d="M764.5,334.687l-9-12.855s-16.712-15.426-28.281-7.713S748.874,344.2,748.874,344.2h9.284l3.768,2.574Z" transform="translate(-394.275 -56.372)" fill="#ffb8b8"/>
  <circle id="Ellipse_44" data-name="Ellipse 44" cx="5.142" cy="5.142" r="5.142" transform="translate(316.018 298.24)" fill="#2f2e41"/>
  <circle id="Ellipse_45" data-name="Ellipse 45" cx="5.142" cy="5.142" r="5.142" transform="translate(317.28 317.523)" fill="#2f2e41"/>
  <path id="Path_410" data-name="Path 410" d="M739.932,349.206l-15.426-29.567s-.188,27.307-9.735,27.794L734.79,376.2Z" transform="translate(-357.26 -54.18)" fill="#575a89"/>
  <path id="Path_411" data-name="Path 411" d="M885.42,229.725s20.79-58.9-46.981-52.675c0,0-43.569-18.062-70.626,35.478l-27.832,56.237,8.2-2.419L750,274.56l11.247,5.566,7.259-9.009-.172,12.8,95.334,30.632s-38.091-35.173-28.852-81.569l6.425,10.567Z" transform="translate(-535.882 -95.729)" fill="#2f2e41"/>
  <path id="Path_412" data-name="Path 412" d="M445.271,571.437v14.2a14.039,14.039,0,0,0,13.839,14.2h40.454a14.039,14.039,0,0,0,13.839-14.2v-14.2a14.039,14.039,0,0,0-13.839-14.2H486.789v-1.093h-14.9v1.093H459.11a14.039,14.039,0,0,0-13.839,14.2Z" transform="translate(209.794 13.346)" fill="#6c63ff"/>
  <path id="Path_413" data-name="Path 413" d="M461.982,572.756h15.426V550.9h7.713V539.615a5.36,5.36,0,0,1-1.813.3c-4.139,0-10.58-3.458-16.12-7.932a35.463,35.463,0,0,1-10.824-16.442l-.476-1.735,1.787.1a35.365,35.365,0,0,1,18.383,7.07,44.879,44.879,0,0,1,9.063,9.526V514.265c-3.381-2.275-5.142-10.49-5.142-18.64a35.358,35.358,0,0,1,6.029-18.743l1.041-1.453,1.041,1.453a35.357,35.357,0,0,1,6.029,18.743c0,9.127-2.211,18.344-6.428,19.193V550.9h7.713v21.854h15.426a16.728,16.728,0,0,1,16.712,16.712v16.712a16.728,16.728,0,0,1-16.712,16.712h-48.85a16.728,16.728,0,0,1-16.712-16.712V589.467a16.728,16.728,0,0,1,16.712-16.712Zm12.47-49.788a32.72,32.72,0,0,0-14.963-6.261,32.572,32.572,0,0,0,9.307,13.279c7.829,6.3,14.719,8.369,15.838,6.967S482.268,529.279,474.452,522.968Zm17.1-27.343a32.655,32.655,0,0,0-4.5-15.58,32.558,32.558,0,0,0-4.5,15.58c0,10.053,2.712,16.712,4.5,16.712s4.5-6.659,4.5-16.712ZM447.842,606.179a14.149,14.149,0,0,0,14.141,14.141h48.85a14.149,14.149,0,0,0,14.141-14.141V589.467a14.149,14.149,0,0,0-14.141-14.141h-18V553.473H479.98v21.854h-18a14.149,14.149,0,0,0-14.141,14.141Z" transform="translate(195.743 -9.699)" fill="#d0cde1"/>
  <path id="Path_414" data-name="Path 414" d="M323.842,384.139v4.4H355.98v-4.4h2.571v87.415H355.98v-2.679H323.842v2.679h-2.571V384.139Zm0,69.764H355.98V403.516H323.842Z" transform="translate(520.988 -35.764)" fill="#6c63ff"/>
  <path id="Path_415" data-name="Path 415" d="M284.842,391.139v3.951H316.98v-3.951h2.571v78.417H316.98v-2.4H284.842v2.4h-2.571V391.139Zm0,62.582H316.98v-45.2H284.842Z" transform="translate(606.904 -33.765)" fill="#6c63ff"/>
  <path id="Path_416" data-name="Path 416" d="M245.842,384.139v4.145H277.98v-4.145h2.571v82.273H277.98v-2.521H245.842v2.521h-2.571V384.139Zm0,65.66H277.98V402.376H245.842Z" transform="translate(696.039 -35.764)" fill="#6c63ff"/>
  <path id="Path_417" data-name="Path 417" d="M529.842,264.139v4.4H561.98v-4.4h2.571v87.415H561.98v-2.679H529.842v2.679h-2.571V264.139Zm0,69.764H561.98V283.516H529.842Z" transform="translate(54.95 -70.026)" fill="#6c63ff"/>
  <path id="Path_418" data-name="Path 418" d="M490.842,271.139v3.951H522.98v-3.951h2.571v78.417H522.98v-2.4H490.842v2.4h-2.571V271.139Zm0,62.582H522.98v-45.2H490.842Z" transform="translate(143.18 -68.027)" fill="#6c63ff"/>
  <path id="Path_419" data-name="Path 419" d="M451.842,264.139v4.145H483.98v-4.145h2.571v82.273H483.98v-2.521H451.842v2.521h-2.571V264.139Zm0,65.66H483.98V282.376H451.842Z" transform="translate(231.411 -70.026)" fill="#6c63ff"/>
  <path id="Path_420" data-name="Path 420" d="M323.07,365.393a40.342,40.342,0,0,0,33.681,0l1.8-.784V500.745l-1.671-.54a55.054,55.054,0,0,0-33.938,0l-1.671.54V364.609Zm32.909,99.2V406.8H323.842v57.8Zm-32.138,2.571V479.2H355.98V467.168Zm32.138-62.939V392.2H323.842v12.032Zm-32.138,93.02a57.567,57.567,0,0,1,32.138,0V481.771H323.842Zm0-107.624H355.98V368.5a42.527,42.527,0,0,1-32.138,0Z" transform="translate(520.988 -41.34)" fill="#d0cde1"/>
  <path id="Path_421" data-name="Path 421" d="M283.945,500.21l-1.674.531V364.608l1.8.792a40.354,40.354,0,0,0,33.675,0l1.8-.792V500.741l-1.674-.531A55.05,55.05,0,0,0,283.945,500.21Zm.9-21.009H316.98V467.168H284.842Zm0-74.967H316.98V392.2H284.842ZM316.98,368.5a42.5,42.5,0,0,1-32.138,0V389.63H316.98Zm0,38.3H284.842V464.6H316.98Zm0,74.967H284.842v15.482a57.377,57.377,0,0,1,32.138,0Z" transform="translate(606.904 -41.34)" fill="#d0cde1"/>
  <path id="Path_422" data-name="Path 422" d="M244.945,500.21l-1.674.531V364.608l1.8.792a40.354,40.354,0,0,0,33.675,0l1.8-.792V500.741l-1.674-.531A55.05,55.05,0,0,0,244.945,500.21Zm.9-21.009H277.98V467.168H245.842Zm0-74.967H277.98V392.2H245.842ZM277.98,368.5a42.5,42.5,0,0,1-32.138,0V389.63H277.98Zm0,38.3H245.842V464.6H277.98Zm0,74.967H245.842v15.482a57.377,57.377,0,0,1,32.138,0Z" transform="translate(696.039 -41.34)" fill="#d0cde1"/>
  <path id="Path_423" data-name="Path 423" d="M450.945,378.21l-1.674.531V242.608l1.8.792a40.354,40.354,0,0,0,33.675,0l1.8-.791V378.741l-1.674-.531A55.068,55.068,0,0,0,450.945,378.21Zm.9-21.009H483.98V345.168H451.842Zm0-74.967H483.98V270.2H451.842ZM483.98,246.5a42.5,42.5,0,0,1-32.138,0V267.63H483.98Zm0,38.3H451.842V342.6H483.98Zm0,74.967H451.842v15.481a57.391,57.391,0,0,1,32.138,0Z" transform="translate(231.411 -76.173)" fill="#d0cde1"/>
  <path id="Path_424" data-name="Path 424" d="M489.945,378.21l-1.674.531V242.608l1.8.792a40.353,40.353,0,0,0,33.675,0l1.8-.791V378.741l-1.674-.531A55.068,55.068,0,0,0,489.945,378.21Zm.9-21.009H522.98V345.168H490.842Zm0-74.967H522.98V270.2H490.842ZM522.98,246.5a42.5,42.5,0,0,1-32.138,0V267.63H522.98Zm0,38.3H490.842V342.6H522.98Zm0,74.967H490.842v15.481a57.391,57.391,0,0,1,32.138,0Z" transform="translate(143.18 -76.173)" fill="#d0cde1"/>
  <path id="Path_425" data-name="Path 425" d="M528.945,378.21l-1.675.531V242.608l1.8.792a40.354,40.354,0,0,0,33.675,0l1.8-.791V378.741l-1.674-.531A55.066,55.066,0,0,0,528.945,378.21Zm.9-21.009H561.98V345.168H529.842Zm0-74.967H561.98V270.2H529.842ZM561.98,246.5a42.5,42.5,0,0,1-32.138,0V267.63H561.98Zm0,38.3H529.842V342.6H561.98Zm0,90.448V359.772H529.842v15.482a57.391,57.391,0,0,1,32.138,0Z" transform="translate(54.95 -76.173)" fill="#d0cde1"/>
</svg>
