<svg xmlns="http://www.w3.org/2000/svg" width="75.119" height="139.356" viewBox="0 0 75.119 139.356">
  <g id="Livello_12" transform="translate(-37.558)">
    <path id="Path_654" data-name="Path 654" d="M108.225,118.226H42V10.889h66.22Zm-38.263,10.9a5.294,5.294,0,1,1,5.294,5.348,5.32,5.32,0,0,1-5.294-5.348m42.706,4.851h.009V5.341h0V5.314h0A5.338,5.338,0,0,0,107.336,0l-.057,0V0H42.894a5.341,5.341,0,0,0-5.335,5.314h0V133.975h.008c0,.056-.008.111-.008.169a5.311,5.311,0,0,0,5.4,5.212c.044,0,.087-.006.131-.007v.007h64.316a5.243,5.243,0,0,0,5.267-5.212c0-.057-.006-.113-.008-.168" fill="#008d6c"/>
  </g>
</svg>
