<svg xmlns="http://www.w3.org/2000/svg" xmlns:xlink="http://www.w3.org/1999/xlink" width="956" height="931" viewBox="0 0 956 931">
  <defs>
    <clipPath id="clip-path">
      <rect id="Rectangle_360" data-name="Rectangle 360" width="956" height="931" transform="translate(736 30)" fill="#fff" stroke="#707070" stroke-width="1"/>
    </clipPath>
  </defs>
  <g id="Mask_Group_3" data-name="Mask Group 3" transform="translate(-736 -30)" clip-path="url(#clip-path)">
    <g id="undraw_landing_page_q6hh" transform="translate(757.11 53)">
      <path id="Path_31" data-name="Path 31" d="M285.377,74.868l-58.5,95.621a72.313,72.313,0,0,1-75.451,123.323l-62.2,101.671,600.1,367.153L885.478,442.021Z" transform="translate(-89.111 -74.868)" fill="#f2f2f2"/>
      <circle id="Ellipse_1" data-name="Ellipse 1" cx="47.12" cy="47.12" r="47.12" transform="translate(60.006 109.135)" fill="#f2f2f2"/>
      <ellipse id="Ellipse_2" data-name="Ellipse 2" cx="166.562" cy="10.958" rx="166.562" ry="10.958" transform="translate(377.789 765.523)" fill="#f2f2f2"/>
      <ellipse id="Ellipse_3" data-name="Ellipse 3" cx="77.802" cy="5.119" rx="77.802" ry="5.119" transform="translate(184.927 811.907)" fill="#f2f2f2"/>
      <ellipse id="Ellipse_4" data-name="Ellipse 4" cx="166.562" cy="10.958" rx="166.562" ry="10.958" transform="translate(708.723 740.319)" fill="#f2f2f2"/>
      <line id="Line_1" data-name="Line 1" x2="1112.243" transform="translate(7.407 733.744)" fill="none" stroke="#2f2e41" stroke-miterlimit="10" stroke-width="2"/>
      <rect id="Rectangle_21" data-name="Rectangle 21" width="799.938" height="540.232" transform="translate(200.817 192.964)" fill="#3f3d56"/>
      <line id="Line_2" data-name="Line 2" x2="799.938" transform="translate(200.817 232.478)" fill="none" stroke="#2f2e41" stroke-miterlimit="10" stroke-width="2"/>
      <circle id="Ellipse_5" data-name="Ellipse 5" cx="9.862" cy="9.862" r="9.862" transform="translate(215.61 202.826)" fill="#38d39f"/>
      <circle id="Ellipse_6" data-name="Ellipse 6" cx="9.862" cy="9.862" r="9.862" transform="translate(245.197 203.374)" fill="#38d39f"/>
      <circle id="Ellipse_7" data-name="Ellipse 7" cx="9.862" cy="9.862" r="9.862" transform="translate(274.783 203.922)" fill="#38d39f"/>
      <rect id="Rectangle_22" data-name="Rectangle 22" width="675.016" height="131.497" transform="translate(250.676 269.123)" fill="#38d39f" opacity="0.3"/>
      <line id="Line_3" data-name="Line 3" y1="131.497" x2="675.016" transform="translate(250.676 269.123)" fill="none" stroke="#38d39f" stroke-miterlimit="10" stroke-width="2" opacity="0.3"/>
      <line id="Line_4" data-name="Line 4" x1="675.016" y1="131.497" transform="translate(250.676 269.123)" fill="none" stroke="#38d39f" stroke-miterlimit="10" stroke-width="2" opacity="0.3"/>
      <rect id="Rectangle_23" data-name="Rectangle 23" width="161.083" height="211.491" transform="translate(250.676 483.901)" fill="#38d39f" opacity="0.3"/>
      <rect id="Rectangle_24" data-name="Rectangle 24" width="161.083" height="211.491" transform="translate(764.609 483.901)" fill="#38d39f" opacity="0.3"/>
      <rect id="Rectangle_25" data-name="Rectangle 25" width="161.083" height="211.491" transform="translate(507.642 483.901)" fill="#38d39f" opacity="0.3"/>
      <line id="Line_5" data-name="Line 5" x2="161.083" y2="211.491" transform="translate(250.676 483.901)" fill="none" stroke="#38d39f" stroke-miterlimit="10" stroke-width="2" opacity="0.3"/>
      <line id="Line_6" data-name="Line 6" x1="161.083" y2="211.491" transform="translate(250.676 483.901)" fill="none" stroke="#38d39f" stroke-miterlimit="10" stroke-width="2" opacity="0.3"/>
      <line id="Line_7" data-name="Line 7" x2="161.083" y2="211.491" transform="translate(508.19 483.901)" fill="none" stroke="#38d39f" stroke-miterlimit="10" stroke-width="2" opacity="0.3"/>
      <line id="Line_8" data-name="Line 8" x1="161.083" y2="211.491" transform="translate(508.19 483.901)" fill="none" stroke="#38d39f" stroke-miterlimit="10" stroke-width="2" opacity="0.3"/>
      <line id="Line_9" data-name="Line 9" x2="161.083" y2="211.491" transform="translate(764.609 483.901)" fill="none" stroke="#38d39f" stroke-miterlimit="10" stroke-width="2" opacity="0.3"/>
      <line id="Line_10" data-name="Line 10" x1="161.083" y2="211.491" transform="translate(764.609 483.901)" fill="none" stroke="#38d39f" stroke-miterlimit="10" stroke-width="2" opacity="0.3"/>
      <rect id="Rectangle_26" data-name="Rectangle 26" width="675.016" height="131.497" transform="translate(340.532 269.123)" fill="#38d39f"/>
      <rect id="Rectangle_27" data-name="Rectangle 27" width="161.083" height="211.491" transform="translate(795.291 534.308)" fill="#38d39f"/>
      <rect id="Rectangle_28" data-name="Rectangle 28" width="113.964" height="13.15" transform="translate(818.851 562.251)" fill="#3f3d56"/>
      <rect id="Rectangle_29" data-name="Rectangle 29" width="113.964" height="13.15" transform="translate(818.851 590.742)" fill="#3f3d56"/>
      <rect id="Rectangle_30" data-name="Rectangle 30" width="113.964" height="13.15" transform="translate(818.851 619.233)" fill="#3f3d56"/>
      <rect id="Rectangle_31" data-name="Rectangle 31" width="113.964" height="13.15" transform="translate(818.851 647.724)" fill="#3f3d56"/>
      <rect id="Rectangle_32" data-name="Rectangle 32" width="113.964" height="13.15" transform="translate(818.851 676.214)" fill="#3f3d56"/>
      <rect id="Rectangle_33" data-name="Rectangle 33" width="113.964" height="13.15" transform="translate(818.851 704.705)" fill="#3f3d56"/>
      <rect id="Rectangle_34" data-name="Rectangle 34" width="161.083" height="211.491" transform="translate(290.125 512.392)" fill="#38d39f"/>
      <rect id="Rectangle_35" data-name="Rectangle 35" width="113.964" height="13.15" transform="translate(313.685 583.071)" fill="#3f3d56"/>
      <rect id="Rectangle_36" data-name="Rectangle 36" width="113.964" height="13.15" transform="translate(313.685 611.562)" fill="#3f3d56"/>
      <rect id="Rectangle_37" data-name="Rectangle 37" width="113.964" height="13.15" transform="translate(313.685 640.053)" fill="#3f3d56"/>
      <path id="Path_32" data-name="Path 32" d="M743.43,395.721c0,24.621-14.636,33.218-32.692,33.218q-.627,0-1.253-.014c-.837-.018-1.665-.058-2.484-.114-16.3-1.153-28.955-10.192-28.955-33.091,0-23.7,30.282-53.6,32.557-55.811l0,0,.132-.128S743.43,371.1,743.43,395.721Z" transform="translate(-32.698 -49.488)" fill="#3f3d56"/>
      <path id="Path_33" data-name="Path 33" d="M707.941,425.173,719.9,408.465l-11.987,18.542-.032,1.918c-.837-.018-1.665-.058-2.484-.114l1.289-24.633-.01-.191.022-.036.122-2.326L694.8,383.037l12.055,16.843.028.494.974-18.612L697.57,362.555,707.983,378.5,709,339.91l0-.132v.128l-.169,30.427,10.242-12.063L708.79,372.955l-.271,16.664,9.563-15.993-9.6,18.444-.151,9.264,13.883-22.259-13.935,25.492Z" transform="translate(-31.093 -49.488)" fill="#38d39f"/>
      <circle id="Ellipse_8" data-name="Ellipse 8" cx="25.678" cy="25.678" r="25.678" transform="translate(64.432 346.062)" fill="#2f2e41"/>
      <path id="Path_34" data-name="Path 34" d="M159.122,429.707s.387,15.85-1.16,16.237,21.262,6.572,21.262,6.572l2.32-21.649Z" transform="translate(-82.532 -40.872)" fill="#a0616a"/>
      <path id="Path_35" data-name="Path 35" d="M323.458,553.365s17.01,0,17.4-1.933,3.866,15.85,3.866,15.85l-6.959,2.319s-13.144-5.8-14.3-5.8S323.458,553.365,323.458,553.365Z" transform="translate(-66.719 -29.224)" fill="#a0616a"/>
      <path id="Path_36" data-name="Path 36" d="M340.956,562.143S337.863,551.7,334,551.318c0,0,13.144-8.5,13.531-11.211s5.026-9.665,6.959-7.345,1.933,39.045-1.546,42.911S334,570.239,334,570.239,343.662,566.008,340.956,562.143Z" transform="translate(-65.66 -31.044)" fill="#2f2e41"/>
      <path id="Path_37" data-name="Path 37" d="M59.933,619.783l-3.092,16.623,14.3,2.32V619.783Z" transform="translate(5.446 59.379)" fill="#a0616a"/>
      <path id="Path_38" data-name="Path 38" d="M149.429,708.609s-2.32-7.345-3.866-6.185-3.866,8.5-3.479,10.438,3.093,17.01,1.933,19.716,5.8,16.623,14.69,15.464,8.118-8.892,8.118-8.892l-3.093-11.984-1.16-18.943S152.522,706.676,149.429,708.609Z" transform="translate(-84.05 -14.756)" fill="#2f2e41"/>
      <circle id="Ellipse_9" data-name="Ellipse 9" cx="10.625" cy="10.625" r="10.625" transform="translate(70.502 334.089)" fill="#2f2e41"/>
      <path id="Path_39" data-name="Path 39" d="M150.42,385.121a10.626,10.626,0,0,1,9.518-10.568,10.625,10.625,0,1,0,0,21.136A10.626,10.626,0,0,1,150.42,385.121Z" transform="translate(-83.46 -46.162)" fill="#2f2e41"/>
      <circle id="Ellipse_10" data-name="Ellipse 10" cx="16.237" cy="16.237" r="16.237" transform="translate(73.884 367.186)" fill="#a0616a"/>
      <path id="Path_40" data-name="Path 40" d="M142.08,527.958s.773,19.329,3.866,29.381,14.243,81.634,11.923,87.046-14.243,65.269-11.537,68.749,15.464,2.32,15.464,2.32l17.335-72.614s-3.418-80.088,25.189-82.021,75.385-3.093,75.385-3.093,30.154,8.891,43.684,8.5,21.262,3.479,21.262,3.479l2.32-15.85L287.05,540.715S232.155,521.772,202,526.8,142.08,527.958,142.08,527.958Z" transform="translate(-84.047 -31.652)" fill="#2f2e41"/>
      <path id="Path_41" data-name="Path 41" d="M165.115,440.043s-4.639-2.706-5.8,0-9.278,5.026-12.371,2.706-10.824.773-10.824.773l-8.5,25.128s4.252,21.649,8.118,33.633,5.412,36.726,3.866,39.045,30.927,11.6,46.777,5.8,19.329-12.371,19.329-12.371-17.4-24.742-11.6-36.339,1.16-24.742,1.16-24.742l2.32-13.144-13.144-7.345s-.773-6.959-3.866-6.959S165.115,440.043,165.115,440.043Z" transform="translate(-85.432 -39.997)" fill="#d0cde1"/>
      <path id="Path_42" data-name="Path 42" d="M186.584,458.988h5.8a12.978,12.978,0,0,1,3.866,11.984c-1.546,7.345-8.52,31.7-8.52,31.7L181.945,487.6Z" transform="translate(-80.227 -38.067)" fill="#d0cde1"/>
      <path id="Path_43" data-name="Path 43" d="M202.034,515.644s11.569,12.528,3.064,19.1-10.6-15.077-10.6-15.077Z" transform="translate(-79.025 -32.639)" fill="#a0616a"/>
      <path id="Path_44" data-name="Path 44" d="M186.229,491.8l2.706,10.824,4.639,8.5s15.85,10.438,15.85,14.3c0,0-6.959-8.892-15.85,0l-7.925-19.136Z" transform="translate(-79.872 -34.923)" fill="#d0cde1"/>
      <ellipse id="Ellipse_11" data-name="Ellipse 11" cx="17.709" cy="10.625" rx="17.709" ry="10.625" transform="translate(75.388 355.671)" fill="#2f2e41"/>
      <path id="Path_45" data-name="Path 45" d="M142.08,410.279s12.371-6.959,17.4-1.933S144.4,421.1,144.4,421.1Z" transform="translate(-84.047 -43.093)" fill="#a0616a"/>
      <path id="Path_46" data-name="Path 46" d="M142.515,448.466l-2.706-1.933s-3.093-4.639-5.8-3.093-18.556-5.8-18.556-5.8,5.8,2.706,5.8-1.933.773-3.866,4.639-3.866,3.866,1.933,5.412-.773.773-4.252,3.479-2.706,5.8.387,6.572-.773,14.69-3.093,14.69-3.093-5.412-15.85-6.572-17.01-30.927,11.984-30.927,11.984-37.5,10.438-27.834,22.422,44.457,30.154,44.457,30.154Z" transform="translate(-89.12 -43.008)" fill="#d0cde1"/>
      <rect id="Rectangle_38" data-name="Rectangle 38" width="161.083" height="211.491" transform="translate(472.028 564.99)" fill="#38d39f"/>
      <rect id="Rectangle_39" data-name="Rectangle 39" width="72.323" height="72.323" transform="translate(516.409 598.412)" fill="#3f3d56"/>
      <rect id="Rectangle_40" data-name="Rectangle 40" width="127.113" height="8.766" transform="translate(489.013 686.077)" fill="#3f3d56"/>
      <rect id="Rectangle_41" data-name="Rectangle 41" width="127.113" height="8.766" transform="translate(489.013 710.184)" fill="#3f3d56"/>
      <rect id="Rectangle_42" data-name="Rectangle 42" width="127.113" height="8.766" transform="translate(489.013 734.292)" fill="#3f3d56"/>
      <path id="Path_47" data-name="Path 47" d="M355.463,803.069c0,15.978-9.5,21.557-21.215,21.557q-.407,0-.813-.009c-.543-.012-1.081-.037-1.612-.074-10.575-.748-18.791-6.614-18.791-21.474,0-15.378,19.651-34.783,21.128-36.219l0,0,.085-.083S355.463,787.091,355.463,803.069Z" transform="translate(-67.668 -8.58)" fill="#38d39f"/>
      <path id="Path_48" data-name="Path 48" d="M332.433,822.181l7.759-10.842-7.779,12.033-.021,1.245c-.543-.012-1.081-.037-1.612-.074l.836-15.986-.006-.124.014-.023.079-1.51-7.8-12.063,7.823,10.93.018.321.632-12.078L325.7,781.545l6.758,10.345.658-25.04,0-.085v.083l-.11,19.746,6.647-7.828-6.674,9.529-.176,10.814,6.206-10.378L332.782,800.7l-.1,6.012,9.009-14.445-9.043,16.543Z" transform="translate(-66.627 -8.58)" fill="#3f3d56"/>
    </g>
  </g>
</svg>
