<svg xmlns="http://www.w3.org/2000/svg" xmlns:xlink="http://www.w3.org/1999/xlink" width="849" height="908" viewBox="0 0 849 908">
  <defs>
    <clipPath id="clip-path">
      <rect id="Rectangle_361" data-name="Rectangle 361" width="849" height="908" transform="translate(869 1351)" fill="#fff" stroke="#707070" stroke-width="1"/>
    </clipPath>
  </defs>
  <g id="Mask_Group_4" data-name="Mask Group 4" transform="translate(-869 -1351)" clip-path="url(#clip-path)">
    <g id="undraw_services_5tv9" transform="translate(892.611 1380.56)">
      <path id="Path_50" data-name="Path 50" d="M609.538,864.323S596.405,832,635.8,807.75Z" transform="translate(-125.607 -28.362)" fill="#3f3d56"/>
      <path id="Path_51" data-name="Path 51" d="M594.057,863.514s-5.977-34.377-52.237-34.083Z" transform="translate(-126.278 -28.141)" fill="#3f3d56"/>
      <circle id="Ellipse_17" data-name="Ellipse 17" cx="176.789" cy="176.789" r="176.789" transform="translate(595.056 152.544)" fill="#6c63ff"/>
      <rect id="Rectangle_57" data-name="Rectangle 57" width="2.02" height="331.495" transform="translate(655.669 255.516)" fill="#3f3d56"/>
      <rect id="Rectangle_58" data-name="Rectangle 58" width="2.02" height="253.485" transform="translate(717.293 294.521)" fill="#3f3d56"/>
      <rect id="Rectangle_60" data-name="Rectangle 60" width="353.578" height="2.02" transform="translate(418.266 420.253)" fill="#3f3d56"/>
      <path id="Path_52" data-name="Path 52" d="M855.674,69.328h0c-48.632,0-88.055,43.752-88.055,97.722v68.57h21.089l12.209-25.406-3.052,25.406H933.416l11.1-23.1-2.775,23.1H957V181.78C957,119.675,911.636,69.328,855.674,69.328Z" transform="translate(-123.969 -35.912)" fill="#2f2e41"/>
      <path id="Path_53" data-name="Path 53" d="M812.8,191.379s27.484,64.129-9.161,76.955l36.645,120.93,62.3-3.664,16.491-40.31-3.665-60.465-5.5-40.31s-38.478,9.161-34.813-58.633Z" transform="translate(-123.601 -34.72)" fill="#ffb8b8"/>
      <path id="Path_54" data-name="Path 54" d="M799.854,265.688s-60.465-5.5-54.968,38.478S755.88,357.3,755.88,357.3l5.5,65.962L728.4,443.418H697.247s-95.278,21.987-47.639,45.807S713.737,470.9,713.737,470.9s87.949,0,93.446-14.658S799.854,265.688,799.854,265.688Z" transform="translate(-125.312 -33.907)" fill="#ffb8b8"/>
      <path id="Path_55" data-name="Path 55" d="M914.277,247.6s56.8-20.155,60.465,23.819,3.665,47.639,3.665,47.639l10.994,62.3s21.987,54.968,21.987,71.458,16.49,67.794,16.49,67.794,21.987,71.458-1.832,69.626-27.484-76.955-27.484-76.955L949.09,414.332l-14.658-60.465Z" transform="translate(-122.47 -34.136)" fill="#ffb8b8"/>
      <path id="Path_56" data-name="Path 56" d="M807.526,258.635H792.868l-1.832,76.955s-23.819,32.981,5.5,62.3l7.329,47.639,133.756-5.5,9.161-49.471s18.323-40.31-7.329-76.955L915.63,238.48H902.8S932.51,348.01,869.823,350.249C818.52,352.081,807.526,258.635,807.526,258.635Z" transform="translate(-123.823 -34.182)" fill="#fff"/>
      <path id="Path_57" data-name="Path 57" d="M1021.39,711.673A460.083,460.083,0,0,1,873.513,822.262c-.02-91.688,1.061-166.162,1.061-166.162s-7.779,78.7-17.659,173.567A457.058,457.058,0,0,1,678.55,865.652c-1.091,0-2.182,0-3.273-.02C725.687,684.5,799.221,476.9,801.252,471.169c.015-.04.029-.08.04-.121l4.435-14.79,1.889-6.294,1.98-6.6,2.687-8.971,119.1-3.657,3.334,7.486,11.325,25.488a9.834,9.834,0,0,1,2.778,1.3C970.252,479.089,997.276,586.5,1021.39,711.673Z" transform="translate(-124.913 -32.217)" fill="#2f2e41"/>
      <path id="Path_58" data-name="Path 58" d="M942.978,416.225l-144.749,5.5s-6.607,49.471,0,49.471c1.832,0,152.078,12.826,150.246-9.161S942.978,416.225,942.978,416.225Z" transform="translate(-123.686 -32.365)" fill="#3f3d56"/>
      <circle id="Ellipse_18" data-name="Ellipse 18" cx="51.483" cy="51.483" r="51.483" transform="translate(666.036 74.679)" fill="#ffb8b8"/>
      <path id="Path_59" data-name="Path 59" d="M880.559,96.163c-8.841-11.384-21.881-18.595-36.438-18.595h-1.729c-33.332,0-60.353,30.162-60.353,67.368h11.169l1.8-13.729,2.645,13.729H863.9l5.55-11.615-1.387,11.615h13.031q9.121,45.3-26.212,90.6h22.2l11.1-23.231L885.4,235.536h42.317l8.325-53.43C936.043,142.091,912.794,108.16,880.559,96.163Z" transform="translate(-123.822 -35.828)" fill="#2f2e41"/>
      <circle id="Ellipse_19" data-name="Ellipse 19" cx="32.981" cy="32.981" r="32.981" transform="translate(735.923 0)" fill="#2f2e41"/>
      <circle id="Ellipse_20" data-name="Ellipse 20" cx="16.581" cy="16.581" r="16.581" transform="translate(511.382 404.56)" fill="#6c63ff"/>
      <path id="Path_60" data-name="Path 60" d="M526.278,418.357H164.8V272.44H465.48Z" transform="translate(1.685 2.785)" fill="#efefef"/>
      <path id="Path_61" data-name="Path 61" d="M658.861,456.036H251.517V276.957H584.991l.282.684Zm-405.133-2.211h401.83L583.511,279.168H253.728Z" transform="translate(-129.246 -33.789)" fill="#3f3d56"/>
      <rect id="Rectangle_62" data-name="Rectangle 62" width="180.185" height="16.581" transform="translate(226.181 298.439)" fill="#3f3d56"/>
      <rect id="Rectangle_63" data-name="Rectangle 63" width="180.185" height="16.581" transform="translate(226.181 332.707)" fill="#3f3d56"/>
      <rect id="Rectangle_64" data-name="Rectangle 64" width="180.185" height="16.581" transform="translate(226.181 366.976)" fill="#3f3d56"/>
      <path id="Path_62" data-name="Path 62" d="M142.606,622.842a12.123,12.123,0,1,1,12.123-12.123,12.123,12.123,0,0,1-12.123,12.123Zm0-22.225a10.1,10.1,0,1,0,10.1,10.1,10.1,10.1,0,0,0-10.1-10.1Z" transform="translate(-130.483 -30.501)" fill="#2f2e41"/>
      <path id="Path_63" data-name="Path 63" d="M564.513,171.088H544.57V151.145h19.943ZM546.1,169.554h16.875V152.679H546.1Z" transform="translate(-126.25 -35.075)" fill="#3f3d56"/>
    </g>
  </g>
</svg>
